<?xml version="1.0" encoding="utf-8"?>
<!-- Generator: Adobe Illustrator 25.0.1, SVG Export Plug-In . SVG Version: 6.00 Build 0)  -->
<svg version="1.1" id="Layer_1" xmlns="http://www.w3.org/2000/svg" xmlns:xlink="http://www.w3.org/1999/xlink" x="0px" y="0px"
	 viewBox="0 0 2560 1440" style="enable-background:new 0 0 2560 1440;" xml:space="preserve">
<style type="text/css">
	.st0{fill:none;stroke:#181818;stroke-linecap:round;stroke-linejoin:round;stroke-miterlimit:10;}
</style>
<g>
	<g>
		<path class="st0" d="M1014.9,1440c-1.5-2.2-2.6-4.8-4.6-6.4c-7.8-6.8-6.6-15.1-2.8-22.5c13.1-25.2,26.8-50.2,45.8-71.6
			c7.2-8.1,14.2-16.5,21.6-24.5c9.9-10.8,21.9-18.3,36-22.6c10.6-3.3,14.2-9.6,12-19.9c-2.7-12.4-3.6-24.9-4.2-37.5
			c-0.7-14.6-0.4-29.3-4.7-43.6c-6.2-20.3-13.7-40-25-58c-8.5-13.6-17-27.2-24.9-41.1c-4.9-8.7-6.3-18.5-7.1-28.5
			c-1.9-23.3-3.7-46.6-11.3-69.1c-6.2-18.3-17-31.8-34.6-40c-15.6-7.3-30.9-15.1-44-26.5c-9.3-8-18.1-16.6-25.6-26.5
			c-7.3-9.7-11-20.6-11.4-32.6c-0.8-19.5-1.5-39-2-58.5c-0.5-17.5-0.6-35-1-52.5c-0.2-10-0.3-20-1.1-30c-0.7-10,3-18.6,7.6-27
			c0.8-1.4,1.6-2.7,2.5-4c6.4-9.1,3.7-17.9-1-26.5c-4.7-8.5-9.8-16.8-18.5-22.1c-13.8-8.4-25.3-7.1-35.3,6.2
			c-6.9,9.1-12.3,19.4-21.2,26.8c-7,5.8-14.3,11.3-21.5,17.1c-9.7,7.8-17.2,17.5-23,28.5c-7,13.3-12.5,27.4-21.6,39.4
			c-4.1,5.4-8.9,10.4-14,15c-12.8,11.8-28.6,11.4-42.9,2c-17.6-11.6-28.5-28-32-49c-1.7-10.4-2-21.2-4.3-31.5
			c-2.6-11.9-8.1-21.9-20.2-27.8c-10.3-5.1-19.8-4.7-29.6-0.2c-12.3,5.5-21.8,14.5-30.6,24.5c-15,17-24.3,37.4-34.1,57.5
			c-5.3,11-11.8,21.4-20.8,30.2c-9.5,9.3-21,14.1-33.6,16.9c-13,2.8-26.1,4.8-39,8.2c-14.5,3.8-25.9,12-31,26.9
			c-4.9,14.3-10,28.6-14.5,43c-8.4,27.3-24.8,48.5-48.6,64c-21.5,14-42,29.2-59.5,48.1c-7.6,8.2-13.8,17.5-13.2,29
			c0.3,6.4,3.1,13,5.8,19c4,8.8,8.9,17.1,13.4,25.6c5.9,11.1,8.6,22.9,9.7,35.5c1.6,19.5-2,37.9-8.2,56c-3.1,9.1-7.4,17.8-9.8,27.1
			c-6.4,24.8-4.4,48.6,10.9,69.9c5.5,7.6,13.9,11.7,22.4,15c14,5.4,28.6,8.6,43.5,10c7,0.6,14.1,1.2,21,0.4
			c9.5-1.1,17-6.7,23.5-13.4c11-11.4,22.4-22.2,36.1-30.5c13.2-8,26.6-15.6,39.5-24.1c15.1-10,29-21.4,39.6-36.4
			c8.8-12.5,14-26.1,12.4-41.5c-1.4-13.1-7.8-23.8-18.3-32.1c-13.6-10.7-29.5-15.6-46.1-18.3c-12.7-2.1-25.6-2.8-38.5-4.2
			c-22-2.3-41.1-9.7-54.6-28.5c-7.2-10-8.7-21.2-7.2-32.5c2.3-17.6,11-32.1,25.8-42.5c7.5-5.3,15.9-8.7,25-9.4
			c15.3-1.1,30.7-1.3,46-2.2c15.9-1,31-4.3,44.6-13.4c7.6-5,12.6-11.9,17-19.6c6.1-10.8,11.2-22.1,18.9-32.1
			c11.4-15,26.9-22.8,44.6-26.9c11.7-2.7,23.6-3.8,35.5-3c13.5,1,27,2.6,39.5,8.4c11.4,5.3,19.9,13.9,25.5,25
			c5,10,9.4,20.3,14.1,30.5c6.2,13.3,12.1,26.8,18.6,40c6.9,14.1,13,28.6,18,43.6c3.7,11.4,7.7,22.7,15,32.5c6.7,9,16.5,13,27,13.8
			c15.6,1.2,31.4,0.4,47,1.3c21.5,1.3,41.6,7,57,23.4c9.9,10.5,14.8,23.2,14.9,37.5c0.2,22.8-5.4,44.4-14.9,65
			c-7.2,15.6-19.9,25.1-35.5,31c-9.8,3.7-19.7,7.4-29.5,11c-12.4,4.6-21.6,12.7-27.5,24.5c-4,8-8.2,15.9-12,24
			c-5.9,12.6-15.6,21.9-27.2,28.8c-14.9,8.8-31,15.2-47.4,20.6c-9.7,3.2-19.5,6.4-29.5,8.4c-14.3,2.9-26.4-1.7-36-12.8
			c-8.1-9.4-11.4-20.9-14.5-32.5c-2.2-8.2-4.8-16.4-10.5-23c-7.1-8.2-16.3-10.4-26.5-8.4c-14.7,2.8-25.4,11.6-34.1,23.4
			c-7.9,10.8-15.2,22.1-24.9,31.7c-12.6,12.4-27.8,18.9-44.6,22.4c-12.8,2.6-25.9,2.8-39,3.2c-10.9,0.3-22.1,1.8-29.4,11.4
			c-3.5,4.5-6.4,9.7-8.5,15c-6.7,16.9-11.3,34.4-13.6,52.5c-0.7,5.5-1.3,11-2,16.5"/>
		<path class="st0" d="M688.8,0c7.7,23.4,20.5,43.6,37.9,61.1c17.8,17.9,36.7,34.4,56.6,49.9c8,6.2,15.3,12.9,19.5,22.5
			c3.5,8.1,4.5,16.2,3.2,25.1c-1.5,10.1-3.6,19.9-6.7,29.5c-3.7,11.5-8.5,22.3-16.5,31.5c-5.9,6.8-13.4,10.5-22,12
			c-18.3,3.1-35.4-2.5-52-9.1c-25.1-10.1-47.5-24.5-66.1-44.3c-7.4-7.9-14.5-16.4-24.5-20.9c-14.4-6.5-31.8-2.5-37.5,15.4
			c-2.6,8-0.4,15.5,2.7,22.5c3.3,7.5,8.3,14.2,11.8,21.6c5.5,11.8,11.1,23.7,15.5,36c7.4,20.5,20,36.7,37.7,48.9
			c9.9,6.8,19.9,13.5,30.5,18.9c14.4,7.3,30,11.1,46.4,11.3c10.6,0.1,20.9-0.4,30.5-5.2c7.2-3.7,14.3-7.9,21-12.5
			c10.2-6.9,21.6-11,33.6-11.1c9.3-0.1,18.8,2.2,28,4.3c19.9,4.5,39.8,9.3,59.5,14.5c12,3.2,23.4,7.9,32.5,16.9
			c7.7,7.6,10.6,17.4,11.3,27.5c1.3,19.4-2.7,38.1-8.4,56.5c-4.3,13.9-9.1,27.6-12.8,41.6c-2.1,7.9-2.8,16.3-3.6,24.5
			c-2.2,22.7-7.9,44-21,63.1c-2.9,4.2-5.7,8.7-7.4,13.5c-4.8,13.5-0.9,20.8,13.5,26.7c19.8,8.2,38.8,17.4,57,28.7
			c8.6,5.4,18.6,7.2,28.5,9.1c8,1.5,15.7,3.5,23.1,7.3c9.8,5,13.8,13.5,15.3,23.2c2.2,14.7-1.7,28.9-5.4,43c-1.9,7.4-4,14.9-7.1,22
			c-5.2,12.1-14.7,20.2-26.4,26.1c-8.8,4.5-17.1,9.6-24.1,16.9c-8.2,8.5-11.9,18.8-14,30.1c-2.2,11.5-2.6,23-1.8,34.5
			c1.7,24.5,6.1,48.1,22.2,68.2c13.9,17.3,31.4,28.1,52.7,32.7c5.6,1.2,11.8,1,17.4-0.1c5.6-1.1,9.4-5.7,11-11.3
			c2.2-7.7,4-15.6,5.5-23.5c4.9-25.4,12.9-49.9,21.9-74.1c8.6-22.9,22.4-42.3,37.6-61c9.1-11.2,17.3-23,26.1-34.4
			c10.1-13.2,23.2-22.5,38.4-29.1c8.2-3.5,16-7.7,22.7-14.2c7.5-7.3,9.8-16.2,10.2-25.7c0.5-14.7,0-29.3,0.2-44
			c0.2-17,1.6-34,9.2-49.4c5.5-11.1,12.5-21.6,19.9-31.5c11.6-15.7,13.5-31.9,4.3-49.1c-7.6-14.1-15.5-28.1-23.5-42
			c-7.2-12.6-13.7-25.6-14.7-40.1c-1-13.8,3-26.9,12.4-37.4c8-8.9,16.7-17.4,26-25c20.8-17,34.3-38.2,39.5-64.7
			c3.4-17.4,4.7-34.8-0.3-52c-1.5-5.3-4.5-10.6-8-15c-7.8-9.8-18.3-16.5-28.8-23.2c-21-13.2-41.8-26.8-59-45
			c-7.1-7.5-13.7-15.3-20.5-23c-10.4-11.7-21.6-22.3-37.5-26c-15.1-3.5-28.1,0.5-39.5,10.5c-9.1,8-14.6,18.5-19.9,29.1
			c-5.2,10.2-10.3,20.4-19.1,27.9c-13,11.1-28,17.5-45.5,16c-7.7-0.7-14.1-3.9-19.1-10.4c-7.7-10-10.6-21.9-13.9-33.6
			c-3.4-12.1-6.2-24.4-12.5-35.5c-7.4-12.9-19-20.3-32.5-25.6c-13.7-5.4-28.2-7.2-42.5-9.9c-11.8-2.2-23.6-4.7-34.5-10
			c-19-9.2-31.8-23.8-39-43.5c-0.9-2.6-2.3-5-3.5-7.5"/>
		<path class="st0" d="M160.6,0c3,12.2,5.8,24.4,9.1,36.5c5.5,20.4,11.5,40.7,16.9,61.1c6.1,22.8,15.5,44.3,25.4,65.6
			c5.4,11.8,11.2,22.9,20.7,32c6.5,6.3,14.4,9,23.1,10.5c14.5,2.5,28.5-0.5,42.5-3.5c15.3-3.3,30.8-5.2,46.5-5.7
			c19-0.6,37.7-3.9,56.1-9.2c17.8-5.1,35.8-9.9,54-13.3c11.5-2.2,23.5-2.5,35.5-0.4c9.5,1.6,16.8,6.6,22.4,13.7
			c11.1,14.5,23.6,27.7,36.6,40.4c12.1,11.8,20.3,26,25.6,42c4.8,14.3,8.7,28.9,16.4,42c4.2,7.1,8.3,14.3,13,21
			c9.4,13.3,16.6,27.7,24,42c5.3,10.3,10.7,20.6,19.4,28.6c4.9,4.5,10.6,5.3,15.4,0.9c6.3-5.8,11.9-12.5,18.1-18.4
			c7.2-6.8,15.5-11.5,26-11.1c12.2,0.5,24.7,9.7,27.4,21.6c1.7,7.7,2.1,15.7,3.2,23.5c1.1,7.7,1.4,15.7,3.7,22.9
			c3.3,10.2,12.1,15.6,21.8,18.5c15.1,4.5,30.6,7.5,46.5,7.7c8.4,0.1,15.2-2.9,19.9-9.6c3.4-4.8,2.3-10.5,1.6-16
			c-1.9-14.3-9.9-25.8-16.5-38c-5.3-9.8-10.9-19.4-15.4-29.6c-8-17.9,3.8-33.7,18.9-39c12.1-4.3,24.4-4.6,37.1-3.1
			c12.5,1.5,24.7,3.7,36.5,8.1c14.7,5.5,25.3,14.4,28.5,30.6c2.1,10.3,0.4,20.1-2,30c-3.2,13.5-10.5,24.9-17.6,36.5
			c-4.2,7-8.3,14-12.5,21c-5.4,9-7,19.2-9.5,29c-3.2,12.7-8.5,24.2-19.6,32c-12.2,8.4-24.5,16.7-37,24.5c-9.8,6.1-20.9,8.4-32.4,9.8
			c-14.8,1.8-28.3-0.9-41.6-7.5c-9.1-4.5-14.6-11.7-18.9-20.2c-4.9-9.9-9.6-19.9-14-30c-5.7-13.2-14.6-23.6-26.1-32
			c-6.2-4.5-12.2-9.3-18.6-13.4c-7.8-5.1-13.7-4.4-19.9,2.5c-4.9,5.5-9.5,11.3-13.5,17.5c-12.4,19.3-24.7,38.6-41.6,54.5
			c-16.8,15.9-36.5,26.7-59.1,31.3c-15.9,3.3-30.4-1.7-42.5-12.8c-14.2-13.2-25.1-29-35-45.5c-5.6-9.3-9.8-19.2-11.5-30
			c-1.4-8.6-3-17.2-1.1-26c1.3-6,1.5-12.3,2.1-18.5c1-10.5,3-21,2.8-31.5c-0.5-22.5-9.2-40.7-30.8-50.5c-8.2-3.7-16.9-5.8-26-6.1
			c-6-0.2-12-1.2-18-0.8c-9.4,0.5-18.7,1.9-28,2.9c-9,1-18,2-27,3c-12.8,1.4-25.6,3.3-38.5,3.8c-12.1,0.5-24.4-0.1-36.5-0.9
			c-22.4-1.6-37.4-15-49.5-32.5c-5.8-8.4-11.3-17-17.1-25.5c-8.8-12.9-21.4-19.6-36.5-22c-12.6-2-25.3-2.7-38-0.1
			c-9.4,1.9-16.6,9.6-18.1,19.1c-1.9,12.4,2.2,23.8,4.5,35.6c3.1,15.8,5.8,31.7,8.6,47.5c1.5,8.6,2.3,17.4,4.1,26
			c2.6,12.8,10.5,18.9,23.9,19c6.2,0.1,12.4-0.3,18.5,0.1c11.4,0.8,22.8,1.6,33,7.4c10.1,5.7,15.2,14.9,16.4,26
			c2.6,25.2-6.6,46.5-22.4,65.6c-10.1,12.2-22.2,21.2-37.5,26.1c-19.6,6.2-38.8-2.2-46-22.6c-3.1-8.9-4.7-18-5.2-27.5
			c-0.4-7.9-1.9-15.7-2.9-23.5c-1.2-9.9-9.1-15.6-19.5-15.5c-21,0.2-42,0.6-63,1"/>
		<path class="st0" d="M842.8,1440c1.2-6,2.5-12,3.5-18c1-6.5,1.6-13,2.6-19.5c1.7-11.5,3.5-23,5.5-34.5c0.8-4.4,1.9-8.9,3.5-13
			c4.2-10.3,10.6-17.4,22.9-18.8c16.1-1.8,30.7,1.9,45,8.3c11.9,5.3,23.8,10.8,35.5,16.5c21.5,10.6,39.3,0.5,48-17.1
			c4.9-9.9,10.3-19.7,13.8-30.1c4.6-13.5,12.4-24.9,20.8-35.9c12.9-16.7,22.5-34.8,26.3-55.6c1.7-9.2,2.5-18.7,3.6-28
			c0.4-3.7,1-7.3,1-11c0-16.6-3.9-32.1-15.6-44.4c-5-5.3-11.8-8.9-17.9-13.1c-5.4-3.8-11.1-7.2-16.5-11.1c-7.7-5.5-7.2-13.3-4.9-21
			c2.7-9.1,6.2-18,9.4-27c2.7-7.8,4.1-15.7,4.6-24c1.3-19.1-2.6-36.7-13.6-52.6c-6.9-10.1-16.8-16.8-27.1-22.3
			c-23.9-12.6-45.4-28.6-66.3-45.3c-6-4.8-10.9-11.1-16.1-16.9c-5.3-5.9-7.1-13.5-6.9-21c0.3-11,2.3-22,2.7-33
			c0.5-15.8,0.3-31.7,0.1-47.5c-0.2-11.3-2.8-22.4-6.6-33c-4.5-12.5-10.3-24.4-20.4-33.5c-6.3-5.7-13.6-9.7-22.5-9.5
			c-7.1,0.2-13.2,3.4-18.4,7.7c-5,4.1-9.3,9.1-13,14.4c-8.8,12.6-16.7,25.9-25.7,38.4c-7.4,10.2-16.2,19.2-26.9,26.1
			c-11.6,7.5-25.7,7.9-37-1c-21.7-17.2-41-36.8-55-61c-4.2-7.3-8.2-14.8-12.6-22c-4.2-7-14.4-10.5-23.6-6.3
			c-14.1,6.5-24.2,16.8-31.9,29.8c-9.6,16.2-18.4,32.8-28.2,48.9c-6.1,10.1-14.1,18.8-25.5,22.9c-7.9,2.9-16.2,4.5-24.5,6.1
			c-10.1,1.9-19.7,5-28.5,10.1c-11.2,6.6-16.4,17.6-20,29.5c-1.5,5-2.9,10.3-2.9,15.5c0.1,13.5,3.8,26.7,20.3,33.2
			c21.3,8.4,41.2-0.2,53.2-16.6c7.7-10.6,15.2-21.4,24.8-30.7c8.6-8.3,18.7-13,30.1-14.8c11.9-1.9,24-3.5,36-4
			c22.8-0.9,45.7-0.9,68.5-1.1c4,0,8,0.8,12,1.5c16.8,3,25,15.7,30.8,29.6c10.4,25,20.7,49.9,36.8,71.9c10.9,15,16,32.4,20.6,50
			c2,7.7,4.8,15.4,8.5,22.5c6.1,11.5,17.2,16.5,29.4,18.5c11.4,1.9,23,2.5,34.5,4.2c29.1,4.1,56,13.5,78,34
			c5.1,4.7,10.3,9.4,15,14.6c6.4,7,7,15.4,4,23.9c-2.4,6.8-5.5,13.4-8.4,20c-9,20-15.2,41.1-21.6,62c-1.5,5-3.5,9.9-6,14.5
			c-6.7,12.5-18.4,17.7-31.4,21.1c-9.8,2.6-19.4,5.6-28.6,10.3c-11.5,5.8-18.7,14.8-23.4,26.2c-4.3,10.4-7.9,21-12.1,31.5
			c-4.6,11.5-14,17.3-25,21.6c-14.1,5.4-28.3,10.8-41.9,17.2c-7.5,3.5-15,8.2-20.9,14c-15,14.9-11.7,25.3-3.1,38.8
			c6.5,10.2,16.2,17.5,25.5,25c5.8,4.7,12,9.1,18,13.6"/>
		<path class="st0" d="M0,683c10.2-1,20.3-2.4,30.5-2.9c8.5-0.4,17.1-0.3,25.5,0.5c14.6,1.4,27.9,7.4,41.6,12.2
			c7.5,2.6,15.6,4.9,23.4,4.9c14.5,0,27.1-5.3,36.1-17.7c8.4-11.6,12.2-24.8,14.3-38.6c2.4-15.8,4.1-31.7,6.1-47.5
			c0.5-3.5,1.2-7,2-10.5c0.9-3.9,5.2-8.2,10-7.6c9,1.2,18,1.8,27,3.1c10,1.4,20.1,2.7,30,5.1c13.5,3.2,26.1,9,38,16
			c12.6,7.5,24.9,15.6,36.5,24.5c15.5,11.9,23.9,28.1,25.7,47.9c1.1,11.6,2,23.4,5.2,34.4c4.4,15.4,15.9,25.5,30.8,31
			c8.8,3.3,18,5.3,27,8.1c13,4.1,25.1,10,35.5,19c13.4,11.6,28.9,16.9,46.5,18.2c12.4,0.9,24.5,0.3,36.5-2.2
			c18.1-3.7,31.1-14.5,39.9-30.1c8.3-14.7,15.3-30,23.2-44.9c8.1-15.3,18.2-29.3,30-42.1c7.6-8.2,15.4-16.1,25-22
			c9.4-5.7,19.3-10.3,30.5-11c12.6-0.9,22.7,5,31.4,13.1c11.2,10.4,19.4,23,22,38.4c1.3,7.6,1.6,15.1,0.9,23
			c-1,11.1-0.8,22.5,1,33.4c1.7,9.8,8.1,17.6,17.7,22.1c5.9,2.8,17.2,0.8,22-3.5c9.5-8.3,15-18.8,19-30.5c4.9-14.4,8.9-29.2,17.5-42
			c6-9,12.8-17.6,18.9-26.6c7.3-10.7,10-22.8,8.4-35.5c-1.1-8.8-7.6-14.1-15.4-17.5c-11.3-4.9-23.4-6.7-35.5-8.5
			c-15.1-2.2-30.3-4.2-45.5-6c-14.8-1.8-23.6-10.6-28.5-24.1c-3.4-9.3-6.2-18.7-9.6-28c-5.1-14.2-12.6-26.7-24.9-36.1
			c-8-6.1-22.2-6.7-30.1-0.9c-3.6,2.7-7.2,5.5-10.5,8.5c-11.8,10.9-22.9,22.6-35.2,32.9c-19.8,16.5-42.8,27.3-67.9,32.5
			c-19.3,3.9-35.5-3.3-47.3-18.4c-13.1-16.7-25.2-34.2-37.6-51.5c-7-9.8-12.2-20.6-14.4-32.5c-2-10.7-2.6-21.6-0.7-32.5
			c0.7-3.8,0.9-7.7,1-11.5c0.4-10.8,2-21.8,0.8-32.5c-2.5-21.8-14.6-35-36.3-41c-16.1-4.4-32.5-3.6-49-2.2
			c-19.9,1.7-39.5,5.2-59,9.2c-18.8,3.8-37.1,9.4-53.9,18.6c-10.8,5.9-17,14.9-16.8,28.4c0.3,26.2-3.5,52.1-11.9,77
			c-6.8,20-14.3,39.7-21.4,59.6c-2.1,6.1-3.6,12.4-5.6,18.5c-1.9,5.8-5,8.3-11,7.9c-14-0.8-28-2-42-2.9c-10.2-0.7-19.9-2.7-29.6-6.4
			c-12.6-4.8-21-13.7-28-24.6c-7.1-11.2-11.1-23.7-15.4-36.1c-7.2-20.6-21.3-32.8-43.1-36c-3.8-0.6-7.7-1.3-11.5-2"/>
		<path class="st0" d="M2007.3,0c-0.6,16.7-6,31-21,40c-16.3,9.8-32.7,19.3-49,29.1c-11.3,6.8-22.1,14.5-33.6,20.8
			c-14.9,8.2-30.2,15.6-45.5,23.1c-6.4,3.1-12,7.6-15.7,13.2c-4.5,6.7-3.5,14.7,0.9,21.3c5.4,8.2,11.8,15.8,17.9,23.6
			c12.7,16.3,22.9,34,31.1,53c6.3,14.4,11.2,29.6,21.4,42c3.7,4.4,7.8,8.6,12,12.5c8.3,7.7,7.8,12.3-0.2,19.9
			c-7.4,7-16,12.8-24.4,18.6c-6.5,4.5-13.8,7.8-20.4,12.2c-5,3.3-9.8,7.2-13.9,11.6c-2.1,2.3-2.8,6.1-3.6,9.4
			c-3.7,15.4-3,30.9,1.1,46c3.6,13.7,12.1,21.3,26.4,22.4c23.9,1.9,47.5,5.3,70.5,12.2c21.7,6.5,43.8,8.1,66,6.7
			c19.6-1.2,39.1-3.5,58.5-6c10.6-1.3,20.3-6,22.7-17.4c1.8-8.4,1.2-17.3,1.2-26c0-4.3-0.9-8.7-1.4-13c-1.3-11-2.8-22-4-33
			c-0.9-8.6-0.8-17.4-2.2-26c-1.3-7.5-0.3-14.7,0.7-22c1.5-11,6.6-20.5,13.5-29c10.6-13,21.4-25.9,32.6-38.5
			c3.3-3.7,8.1-6.2,12.4-9.1c9.1-6.1,16.8-1.3,21.8,5.1c6.2,7.8,11.3,16.4,16.6,24.9c8.2,13.2,18.6,24.6,29,36
			c14.9,16.2,29,33,38.2,53.4c5.6,12.4,9.4,25.2,13.2,38.1c3,10,5.5,20.2,7.5,30.5c2.4,12.5-0.9,23.3-11.3,31.6
			c-9.7,7.8-20.6,13.2-32.6,15.8c-11.3,2.4-22.9,2.6-34.5,0.7c-6.6-1.1-13.3-1.6-20-2c-12.2-0.8-24.3-1.5-36.5-1.9
			c-3.6-0.1-7.5,0.4-11,1.5c-9.9,3.3-15.7,10.8-18.5,20.4c-5.2,18.1-6.2,36.8-4.9,55.5c1,15.1,4.1,30,11.4,43.5
			c8.3,15.4,21.8,24.6,38,30c13.6,4.5,27.1,9.2,41,12.4c16.2,3.8,31.3,1.4,43.5-11.7c11.2-12,23.1-23.5,37-32.5
			c7.9-5.2,16.2-9.9,24.5-14.5c9.8-5.5,18.5-12.4,23.3-22.6c2.8-6,4.4-12.8,5-19.4c1.7-17-1.7-33.4-6.8-49.5
			c-1.9-6.1-4-12.2-4.9-18.5c-1.2-8.3,1.2-16,5.9-23c7.1-10.6,14.6-20.8,21.4-31.6c10.2-16.1,17.8-33.5,25-51
			c6.6-16,11.7-32.3,11.7-50c0-11.5,0.6-23.1,2-34.5c1.7-13.7,8-25.8,15.9-37c6.7-9.5,16-15.6,26-21c11.4-6.1,23.2-11.5,33.9-18.7
			c11.7-7.9,20.2-19,22.5-33.3c1.6-10,1.6-20.1-1.8-30c-3-8.9-5.6-18-8.6-27c-4.3-13-8.2-26-8.1-40c0-10.9,0.2-21.7,2.1-32.5
			c0.8-4.8,0.7-9.7,1.1-14.5"/>
		<path class="st0" d="M1326.5,0.5c0.8,3.3,1.7,6.7,2.5,10c2,9.3,3.8,18.7,6.1,28c3.3,13.2,7.5,26.3,10.3,39.6
			c2.5,12,1.7,24.2,0.9,36.5c-0.8,12.6-3.5,25.5,0.8,38c2,5.9,5.7,10.5,10.4,14.6c9.5,8.1,21,12.3,32.1,17.4
			c22,10.2,44.4,20,63.9,34.6c18.8,14.1,27.4,33.5,25.5,56.9c-0.9,11.6-3.7,23-4.7,34.5c-0.8,9.4-1.2,19.1,2.9,28
			c4.9,10.6,13.8,17,24.4,21c11.8,4.4,23.6,8.5,35.5,12.5c18.6,6.4,29.3,19.6,33,38.6c2.3,11.6,4,23.4,6.1,35
			c2.4,13.7,4.8,27.4,7.5,41c2.4,12.2,4.7,24.6,3.3,37c-2.1,20-9,31.2-32.4,37c-10.8,2.7-22,2.8-33,1.8
			c-13.1-1.1-25.6-5.2-37.5-10.8c-13.4-6.3-26.8-12.8-41.5-15.4c-10.9-2-21.9-2.1-33-0.7c-9.5,1.2-18.4,3.2-27,7.6
			c-18.9,9.7-28.9,25.6-33.5,45.6c-3.2,14-2.8,28.4-1.7,42.5c1,12.6,4,25.2,7.4,37.5c3.9,14.1,9,27.8,13.9,41.6
			c5.4,15.2,16,24.8,31.4,29.6c24.4,7.6,46.7,19.8,69.1,31.9c8.6,4.6,17,9.6,27.5,9.2c5.9-0.2,11.1-1.5,15.4-5.2
			c5.1-4.4,9.7-9.3,14.6-13.9c11.5-11.2,22.7-22.7,34.6-33.4c21-19,40.4-39.3,54.5-64.1c8.4-14.8,19.8-27.1,32.9-38.2
			c19-16.1,40.4-28.2,62.2-39.8c13.1-7,25.5-14.8,35.5-26c7.1-7.9,10.3-17.2,11-27.5c0.8-12.8-2.5-24.9-5.9-37
			c-6.4-23.1-12.9-46.2-18.4-69.6c-2.6-11.2-3.1-22.7-2-34.5c1.4-14,3.4-27.7,8.2-41c5.3-14.7,13.3-26.9,28.6-32.4
			c6.1-2.2,12.6-3.8,19-4.5c10.9-1.2,22.2-0.5,32.9-2.4c12.5-2.2,12.9-9.5,10.9-19.2c-1.6-7.5-5.9-13.8-10.9-19.5
			c-14.5-16.6-32.1-28.7-53-36.1c-22.3-8-42.1-20.2-58.5-37.5c-11.2-11.8-22.3-23.7-33.5-35.5c-15.9-16.6-35-28.1-57-35.1
			c-12.2-3.9-24.1-8.7-36-13.5c-9.3-3.8-17.2-9.8-23-18c-12.9-18.3-28.9-32.7-48.9-43.3c-15.7-8.3-32.2-15.1-46.8-25.6
			c-10.8-7.8-20.2-16.6-26.9-28.1"/>
		<path class="st0" d="M1252,1440c6.2-14.6,12.9-28.8,28-36.5c8.9-4.6,18.2-5.7,27.5-2.3c8.3,3,16.1,7.5,24.1,11.3
			c2.4,1.1,4.6,2.7,7,3.4c4,1.2,7.8,1,11-2.4c5.1-5.6,10.3-11.1,15.5-16.5c12.6-13,28.5-18.9,46-21.6c14-2.2,28.4-3,41.5-9.1
			c7.1-3.3,14-7.5,20-12.5c13-10.8,24.9-22.9,33-38c6.4-12.1,7.7-25.4,3.5-38.4c-4-12.1-9.3-23.8-14.4-35.6
			c-7.1-16.4-14.5-32.8-22-49c-5.7-12.3-11.7-24.5-18-36.5c-6.7-12.8-13.7-25.5-21-38c-7.4-12.9-17-23.7-31.5-29
			c-9.3-3.4-18.8-3.6-28.5-2.5c-22.7,2.5-43,12.4-64,20.2c-15.1,5.6-22.9,3.8-32.1-9.1c-12.3-17.4-22.7-35.8-30.4-55.6
			c-4-10.4-5.5-21.1,1.2-31.6c2.2-3.5,5.1-5,8.2-6.9c9.6-5.9,20.4-8.6,31.1-11.4c35.1-9,64.5-26.6,85.9-56.2
			c7.9-10.9,13.7-23,15.5-36.5c1.1-8-0.2-16-3-23.5c-5.7-15.1-12-30-17.9-45.1c-3.9-10-7.7-20-11.5-30c-0.2-0.5-0.7-1-1-1.5
			c-4.7-8.7-9.2-9.6-16.5-3c-5.1,4.7-9.8,10-15.1,14.4c-14.7,12.4-32.5,18-51,22.1c-6.4,1.4-12.6,3.4-19,4.9
			c-18.8,4.5-29.4,17.7-35.9,34.6c-5.4,14-9.8,28.3-14.6,42.5c-3,8.7-7,16.7-13.5,23.6c-8.1,8.6-18.6,11.7-29.6,12.3
			c-22,1-44,0.8-66,1.2c-5,0.1-10,0.4-15,1c-9.1,1.2-15.3,8.1-15.3,18.5c0,9.8,1.2,19.7,2.4,29.5c1.2,10.2,3,20.3,4.4,30.5
			c2.4,17,3.1,34.4,9.7,50.4c5.3,12.9,11.7,25.6,19,37.5c10.3,16.8,21.8,32.8,32.8,49.1c6.3,9.2,13,18.2,18.9,27.6
			c7.5,11.8,9.5,25.7,12.5,39c3.5,15.4,9.8,29.4,18.5,42.5c6.3,9.5,12.6,19,17.9,29.1c3.5,6.8,6.1,14.4,7.5,22
			c1.5,8.2-1.3,16.5-6.4,22.9c-12.6,15.7-28.8,27-46.9,35.7c-9,4.3-16.9,1-24.5-3.6c-6.5-3.9-12.7-8.2-19-12.5
			c-11.4-7.7-34-6.3-45.4,5.1c-13.5,13.6-15,36.2-5.1,51.9c2.4,3.8,5.3,7.4,8,11"/>
		<path class="st0" d="M244.6,1440c1.5-6.8,2.9-13.7,4.5-20.5c2.7-11,5.9-22,8.4-33c3.3-14.8-7.6-32.3-22.4-38.1
			c-14.6-5.7-28.6-3.8-42.6,2.1c-9.6,4.1-19.1,8.7-29.1,11.9c-23.1,7.3-44.9,4.7-64.5-10.4c-12.1-9.4-20.3-21.6-25.6-36
			c-7.9-21.3-15.3-42.7-26.5-62.5c-7.2-12.7-15.1-25-22.4-37.6c-7.7-13.2-14.3-26.8-14-42.5c0.4-17,7.1-31.5,18.4-44
			c14.4-15.9,31.9-28,49-40.6c7.7-5.7,14.9-12.2,22.6-17.9c10.4-7.7,22.5-11.8,34.5-16.1c25.1-8.8,42.8-26,56.1-48.5
			c6.5-11,13.4-21.9,20.5-32.5c6.9-10.3,17.3-16.7,28-22.5c15.5-8.5,31.2-16.5,44.5-28.5c12.6-11.4,22.3-24.7,29.5-40
			c9.4-20.1,13.3-41.9,21-62.5c2.8-7.5,6.7-14.7,9.9-22.1c1.6-3.6,2.7-7.3,4-11c1.5-4-0.4-7.2-3.1-9.4c-2.7-2.2-6.2-3.2-9.9-1.6
			c-5.1,2.1-8.2,6.3-11.5,10.5c-11.1,13.8-24.7,24.4-42,28.9c-9.9,2.6-20.2,4-30-1.8c-8.2-4.8-13.5-12.1-16.9-20.6
			c-4.7-11.7-7.7-23.9-8.6-36.5c-0.5-7-0.8-14-1-21c-0.3-13.6,4.8-24.6,16.5-32c5.9-3.8,12.7-5,19.5-5.5c10.8-0.7,21.1,2.1,31.5,4.4
			c5.8,1.3,11.7,2.8,17.5-0.9c7.2-4.6,10.2-12,11.8-19.6c4.9-22.3-4.8-38.7-22.4-51.5c-14.6-10.7-30.3-19-48-23
			c-15.4-3.4-30.2-1.9-42.9,8.1c-7.5,5.8-11.1,14.6-13.5,23.5c-3.5,12.9-6.1,26-9.1,39c-3.5,15.2-12.9,25.8-26,33.5
			c-11.6,6.8-24.3,9.7-37.5,9.4c-10.6-0.2-20.9-2.9-31-6.4c-11.8-4.1-23.6-8.2-35.5-11.9c-3.5-1.1-7.3-1.5-11-1.5
			c-14.2,0.1-28.3,0.6-42.5,1c-0.8,0-1.7,0.9-2.5,1.4"/>
		<path class="st0" d="M432.7,1440c1-7.5,1.7-15.1,3.1-22.5c3.1-17.2,7.3-34.3,9.7-51.6c1.4-10.3,0.6-21,0.2-31.5
			c-0.5-11.9-8.7-18.9-18-24.4c-16.6-10-35.1-14.2-54-17.7c-11.9-2.2-23.7-5-35.5-7.4c-14.8-3.1-23.4-12.9-28.5-26.5
			c-5.7-15.2-11.3-30.4-17-45.5c-2.7-7.2-5.6-14.3-7.9-21.5c-3.5-10.8,1-19.1,9-26c7.6-6.6,15.5-12.8,22.9-19.6
			c10.6-9.7,14.4-22.4,15.1-36.5c0.9-17.5-6.2-32.5-14.6-47c-7-12.1-14.6-23.9-21.4-36.1c-3.6-6.5-5.8-13.7-6.2-21.4
			c-0.6-10.9,3.9-19.6,11.2-26.9c6.3-6.3,13.5-11.8,20.4-17.6c11.3-9.5,22.4-19.4,34.1-28.4c8.5-6.6,18.1-11.9,26.9-18.2
			c11.6-8.4,21-18.9,27-32c5.1-11.1,6.2-23,3.5-35c-1.6-7.4-8.6-12.2-15.9-12.6c-13-0.6-21.6,6.7-29.5,15.5
			C356,862,349.6,877,343.8,892.2c-8.6,22.8-22.5,41.1-41.1,56.6c-9.4,7.9-19.1,15.1-30.1,20.4c-7.5,3.5-15,7-22.5,10.5
			c-11.9,5.5-20.3,15-28.4,24.6c-13.4,16.1-25.4,33.5-39.4,49.2c-8.8,9.9-19.7,18-30.4,26.1c-10,7.6-20.6,14.6-31.5,21
			c-7.2,4.2-15.2,7-22.9,10.1c-10.9,4.5-22.3,8.1-32.9,13.2c-13.8,6.6-24.9,16.8-31.5,30.9c-7.2,15.6-5.6,31.3,0.8,47
			c7.6,18.7,19.5,35,28.1,53c5.2,11,10.2,22.1,15.6,33c5.7,11.6,10.8,23.6,17.7,34.4c8.6,13.5,21,22.7,37.3,25
			c10.3,1.5,20.2-1.1,29.4-5.5c7.4-3.5,14.3-8.1,21.6-11.9c10.2-5.3,20.9-8.6,32.5-9.7c17.2-1.6,33.3,1.4,48.5,9.2
			c8.9,4.6,12.4,13.3,13.9,22.5c3,17.9,0.8,35.3-4.8,52.5c-3.5,10.7-6.4,21.7-9.5,32.5c-0.3,1-0.3,2-0.5,3"/>
		<path class="st0" d="M1777.2,1440c0.7-4.8,1.4-9.7,2-14.5c1.1-9,2-18,3-27c1.4-12.2,1.3-24.6,5.4-36.6c4-11.6,10.9-21.1,20.1-29
			c6-5.2,12.4-9.9,18.4-15.1c6.7-5.8,11.4-13.1,14-21.5c2.9-9.6-1.4-21-9.4-27.5c-9.6-7.8-21.1-11.3-32.6-14.3
			c-17.2-4.5-34.6-8.1-52-12.2c-17.6-4.1-35.1-3.6-52.6,1.4c-7.3,2.1-14.9,3-22.5,3.5c-9.3,0.6-15.3-3.4-18.3-12.4
			c-2.6-7.9-4.2-16.2-5.6-24.5c-3.3-19.7-1.9-39.7-2-59.5c0-9.3,0.8-18.7,0.8-28c0-3.8-1.1-7.7-1.9-11.5c-1.7-8-7.6-10.9-15-12
			c-9.2-1.4-18.5-2.5-27.5-4.6c-13.9-3.2-27-9.1-40.1-14.8c-16.2-7.1-32.6-13.8-49-20.6c-12.9-5.4-25.3-11.7-33.9-23.1
			c-3.8-5.1-6.7-11-9-17c-4.8-12.5-8.1-25.4-15.1-37c-8.3-13.6-19.9-22.9-35.1-27.4c-5.6-1.7-11.6-1.2-17,1.9
			c-7.8,4.5-16.2,8.3-23.4,13.6c-21.6,16-45.6,27.4-70.6,37c-8.3,3.2-16.2,7.2-24,11.5c-10.2,5.6-14.3,16.4-10.5,27.4
			c4.2,12.3,10.4,23.2,23,29c10.4,4.8,20.9,3.4,31.5,0.5c14.1-3.8,28.3-7.7,42.5-10.9c14.5-3.3,29.1-3.7,43.5,0.9
			c14.4,4.5,23.7,14.6,28.9,28.1c10.9,28.4,23.8,55.7,37.1,83c6.8,14.1,12.3,28.8,19.2,42.9c5.5,11.3,12.2,22.1,18.4,33.1
			c6.7,11.9,13.9,23.7,17.4,37c5.5,20.8,3.3,40.3-9.9,58.1c-7,9.4-13.7,19.1-20,29c-7.6,11.9-18.7,17.4-32.1,19.5
			c-14.8,2.3-29.8,4.2-44.5,7.2c-10.3,2.1-20.4,5.6-26,15.8c-3.5,6.4-5.6,13.1-5,20.5"/>
		<path class="st0" d="M2312.9,1439.5c4.3-13.2,9-26.3,12.8-39.6c1.5-5.4,1.7-11.3,1.5-17c-0.3-8.8-6.2-14.3-13.4-17.9
			c-8.6-4.2-17.5-7.7-26.5-11.1c-8.7-3.3-17.3-6.7-24.4-12.7c-13.7-11.6-17.6-26-12.2-43.5c6.3-20.2,17.6-36.2,36.2-46.4
			c9.5-5.3,19.8-7.8,31-6.2c12.7,1.9,19.9,9.5,23.4,21.1c3.9,12.9,7.3,26,11.1,39c2.1,7.3,4.1,14.6,8.4,21.1
			c4.5,6.8,10.5,9.8,18.6,10.1c10.6,0.4,20.5-2.6,30.5-5.1c15.8-3.8,31.7-7.1,47.5-11.1c9.3-2.4,18.3-5.6,24.6-13.8
			c5.6-7.3,6.1-15.2,4.9-23.6c-1.9-13.6-8.9-24.9-17.7-34.9c-7.8-8.9-16-17.5-26.8-23.3c-9.8-5.3-20.2-8.6-31.1-10.4
			c-8.8-1.4-17.7-2.6-26.5-4c-15.7-2.5-24.3-12.7-27.4-27.5c-2.1-10.3-2.9-21-4.1-31.5c-1.3-10.8-1.6-22-6.2-31.9
			c-5.1-11-14.1-18-26.3-20.1c-17.2-2.9-33.9-0.4-50.5,4c-20.8,5.6-41.1,12.4-58.4,25.7c-8.3,6.3-15.9,13.9-22.5,22
			c-12.5,15.5-28.1,25.9-46.7,32.5c-10.8,3.9-21.1,8.9-28.1,18.9c-6.3,9.1-7.3,19-6,29.5c2.1,16.3,9.3,30.9,15,46
			c7.8,20.7,7.5,41.3-1.5,61.5c-5.6,12.5-11.7,24.8-18,37c-8.8,17.2-13.8,35.1-13,54.6c0.1,3,0,6,0,9"/>
		<path class="st0" d="M2340.4,1440c10.3-22.6,22.1-44.4,40.1-61.9c13.1-12.7,29.1-21.3,45.9-28.1c14.3-5.8,29.5-7.6,44.5-10.6
			c9.8-1.9,19.5-4,27.2-11.8c6.5-6.7,8.9-14.5,9.3-23.1c1-17.9-5-33.7-14.4-48.6c-9-14.3-20.2-26.7-32.7-37.8
			c-12.4-11-28-15.8-43.9-19.7c-10.7-2.6-21.4-5.2-30.6-11.9c-7.2-5.2-11.1-12.5-13.3-20.6c-2.8-10.3-3.8-20.8-4.3-31.5
			c-0.4-8.9-1.8-17.8-3.4-26.5c-2.7-14.1-13.3-22.2-27.4-23.4c-9.8-0.8-19.7-1.6-29.5-0.9c-10.9,0.7-21.8,2.5-32.5,4.9
			c-20.4,4.6-40.5,10.2-60.1,17.8c-16.1,6.3-29.1,16.7-40.4,29.2c-9.9,11-21.6,19.2-35.1,24.9c-9.3,3.9-19,7.1-27.9,11.6
			c-16.1,8.1-25.1,21.3-27.7,39.4c-2.6,18.1,1.2,35.3,5.6,52.6c2,7.7,3.6,15.6,4.5,23.5c1.6,15.3-4.2,28.8-11.9,41.5
			c-5.6,9.2-13,16.8-21.4,23.6c-12.7,10.3-25.4,20.5-37.5,31.6c-13.7,12.6-30,19.2-47.6,23.4c-6.6,1.6-13.3,2.7-20,4.1
			c-14.7,3.1-15.6,7.1-18.5,20c-0.6,2.8-0.7,5.7-1,8.5"/>
		<path class="st0" d="M2496.4,0c-1,9.3-2.5,18.7-2.9,28c-0.6,14.6-0.9,29.4,4,43.5c5.4,15.5,11.2,30.7,17,46.1
			c4.1,10.8,3.5,21.9,2,33c-2.3,16.9-8.6,32.2-17.5,46.5c-6.7,10.7-15.3,19.2-26.5,25c-6.1,3.1-12.5,5.7-18.5,9.1
			c-11.3,6.4-18.8,16.1-22.5,28.5c-3,10.1-5,20.5-8.2,30.5c-3.7,11.8-7.2,23.9-12.6,35c-14.2,29.4-28.3,59-40.7,89.2
			c-6.1,14.9-9.2,30.7-7.5,47c0.9,9.2,2.8,18.3,3.9,27.5c0.9,8,1.3,16,2.1,24c1.1,10.9,2.3,21.7,6.4,32.1
			c5.6,14.5,17.4,20.8,31.1,25c12.9,3.9,24.6-5.6,30.1-15c10.4-17.8,14.3-37.6,19.5-57.1c2.5-9.4,5.2-18.9,9.6-27.4
			c7.3-14.4,20.2-22.4,35.8-25.6c12.9-2.6,25.9-3,39-1.2c6.6,0.9,13.3,0.8,20,1.1"/>
		<path class="st0" d="M0,792.1c9.7,0.1,19.2,1.6,28,5.6c12.4,5.7,20.4,15.8,26,27.9c5.8,12.5,11.3,25.2,16.5,38
			c4.5,11.2,9.3,22.4,12.3,34.1c2.7,10.2,2.6,20.8,0.9,31.5c-1.8,11.6-2.9,23.3-4.1,35c-0.6,6.5-0.9,13-1,19.5
			c-0.1,9.2,2.2,17.9,6.5,26c4.3,8.2,12.3,11.3,20.5,13.4c18.2,4.7,34.9,0.5,50-10.4c9.7-7,15.5-17,21.6-27
			c7.2-11.8,13.2-24.2,23.3-34.2c9.5-9.3,20.7-15.6,32.2-21.9c11.9-6.5,23.6-13.1,33-23.1c6.9-7.4,11.9-15.9,14.1-26
			c1.8-8.2-1-15.3-8.6-18.9c-6.7-3.2-13.5-6.3-20.5-8.5c-14.6-4.5-24.8-14.2-31.2-27.3c-6.9-14-11.7-29-17.8-43.4
			c-3.7-8.6-7.8-17-12.5-25c-5.3-9-14.4-12.3-24.4-12.5c-11.7-0.2-23.3,0.7-35,0.8c-20.4,0.2-40-3.8-59.1-11.4
			C55.6,728.7,40.3,724.1,24,724c-8-0.1-16-0.6-24-1"/>
		<path class="st0" d="M2287.4,1440c0.8-5.8,2-11.7,2.4-17.5c0.5-7.6,1.5-15.5,0.3-23c-1.5-8.9-8-15.2-15.8-19.5
			c-11.2-6.3-22.6-12.1-34-18.1c-12.4-6.5-23.1-14.8-30.6-27c-6.3-10.4-5-20.5,1.7-29.5c12-16.1,24.5-31.8,37.5-47
			c13.3-15.6,31-24.9,49.9-32.2c8.4-3.3,17.1-5.8,24.7-11.2c8.2-5.9,11.4-14,12.8-23.2c1.1-6.9,2.2-14,1.9-21
			c-0.5-12.3-0.1-24.9-5-36.5c-5.8-13.8-15.5-21-31.4-20.9c-36.7,0.2-67.7,13.8-91.5,42.3c-7.4,8.9-14.6,18.1-22.1,27
			c-7.7,9.2-17.7,15.3-28,21c-6.8,3.8-12.6,8.8-17.4,14.7c-4.8,5.9-4.1,13.3-3.1,20.4c1.3,9.9,6.4,18.2,11.5,26.5
			c7.8,12.6,15.9,24.9,23.4,37.6c6.6,11.2,7.9,23.1,4.3,36c-2.4,8.8-2.8,18.3-3.7,27.5c-1.8,20-3.7,40-8.6,59.5
			c-1.2,4.7-2.3,9.3-3.5,14"/>
		<path class="st0" d="M2075.3,0c-3.2,8.8-6.2,17.7-9.5,26.5c-4.2,10.9-8.6,21.7-13,32.5c-3.6,8.8-9.7,15.9-19,17.7
			c-8.4,1.6-17.3,1.2-26,1.2c-9.8,0.1-19.8-1.2-29.5-0.2c-16.5,1.6-32,7.5-46.5,15.4c-15.1,8.2-29.9,17.2-43,28.5
			c-12,10.4-14.4,20-7.8,35.8c8.1,19.5,19.7,37.1,34.1,52.7c14.3,15.5,31.2,17.7,50.1,11.4c13.7-4.6,27.3-9.9,41.1-14.4
			c12.6-4.1,25.6-5.9,38.4-1.4c7.6,2.6,14.8,6.7,22,10.4c3.1,1.6,5.6,4,8.6,5.9c10.6,6.7,25.1,6.2,34.2-2.8
			c7.9-7.8,14.9-16.3,21.3-25.2c10.6-15,25.8-22.9,42.6-28.4c4.7-1.6,9.6-2.4,14.5-3.6c13.5-3.2,16.1-10.4,17.6-21.5
			c1.9-13.9,3.9-27.8,6.5-41.5c2.3-11.8,5.6-23.4,8.4-35c3.4-14.3-0.1-27.2-7.4-39.6c-4.7-8-9.1-16.3-13.6-24.5"/>
		<path class="st0" d="M2515,0.5c-0.5,0.7-1.4,1.3-1.4,2c-0.5,4.7-0.7,9.3-1.1,14c-0.3,4.8-1,9.7-0.9,14.5
			c0.2,18.7,3.4,36.6,12.9,53.1c6.6,11.5,14,22.7,16.5,36c1.8,9.5,1.8,19,0,28.5c-2.7,14.2-6.1,28.3-8.3,42.6
			c-2,12.5-1.5,25,0.7,37.5c1.1,6,1.1,12.3,1,18.5c-0.1,7.4-7,14.9-17.9,16.6c-9,1.4-18,3.4-27,4.9c-17.8,3-31,12.6-40.5,27.6
			c-14.7,23.2-29.1,46.6-40.4,71.6c-8.3,18.3-14.2,37.4-17.3,57.5c-2.4,15.1-2.1,30,0.2,45.1c1.4,9.5,2.3,19.1,4.2,28.5
			c1,5,2.7,10.3,5.5,14.4c7,10.2,16.9,12.3,24.8-0.4c4.8-7.7,7.2-16.3,9.5-25c3-11.1,5.9-22.3,13.4-31.6
			c11.9-14.8,27.5-23,46.1-25.4c8.9-1.2,18-2.1,27-1.9c9.2,0.2,18.3,1.8,27.5,2.8c3.5,0.4,7,0.7,10.5,1"/>
		<path class="st0" d="M2560,816.1c-15.3-2.3-30.7-4.9-46-6.9c-6.4-0.9-13-1.4-19.5-0.9c-10,0.6-20.1,1.8-30,3.5
			c-19.1,3.2-38,7-57,10.4c-6.3,1.1-12.7,2.1-19,1.9c-11-0.4-22-1.7-33-2.9c-9.4-1.1-18.6-2.9-28-3.9c-10.3-1-20.7-2.3-31-1.9
			c-15.3,0.7-30.8,1.9-44.6,10.2c-6.1,3.7-11.4,7.9-15,14.1c-4.8,8.2-4,16.8-2,25.5c3.4,15.1,11,28.5,18.1,42
			c6.1,11.4,13.2,22.2,22.3,31.7c12.8,13.4,28.8,20.5,46.1,25.5c10.9,3.1,21.8,6.4,31.5,12.5c10.9,6.8,17.2,17.5,23,28.5
			c4.9,9.2,9.2,18.8,14.1,28c5.9,11.1,15.7,16.3,27.9,18.1c15.5,2.3,30.6,0.9,45.5-3.2c11.9-3.3,22.3-9.9,32-17.4
			c10.5-8,21.1-15.9,34.1-19.4c10-2.7,20.3-4.1,30.5-6.1"/>
		<path class="st0" d="M829.8,0c5.9,13.9,16.5,23,29.5,30.1c15.7,8.5,32.8,13.1,49.5,19c12.5,4.4,25.3,8,37.4,13.2
			c18.9,8.1,31.2,22.7,38.7,41.8c3.6,9.2,8,18.2,12.5,27c5.6,11,18.4,17.3,29.9,13.5c7.8-2.6,14.7-7,19.5-14
			c7.6-11,14.8-22.1,22.6-33c10.1-14.2,24.5-21.3,41.5-24.1c21.8-3.6,39.9,3.7,54.9,18.7c13,13,24.7,27.3,37.7,40.3
			c14.2,14.2,30.6,25.5,49.5,32.5c10,3.7,20.4,6.8,31.5,5.7c9.9-0.9,17.3-5.1,22-14.1c7.3-13.8,11.6-28.5,13.7-44
			c2.1-15.3-1.4-29.6-5.1-44.1c-3.6-14.1-7.3-28.2-9.8-42.6c-1.5-8.5-0.9-17.3-1.2-26"/>
		<path class="st0" d="M2560,831.1c-9.3-1.3-18.6-3-28-3.9c-5.9-0.6-12,0.1-18-0.1c-15.6-0.6-30.5,2.3-45,7.6
			c-17.6,6.5-35.1,13.5-52.5,20.5c-9.5,3.8-19.3,6.5-29.5,4.8c-6-1-11.8-3.5-17.5-5.9c-11.3-4.6-22.2-10.1-33.6-14.3
			c-13-4.9-26.6-7.2-40.5-6.6c-8.9,0.4-17.6,2.3-25.5,6.5c-11.4,6.2-17.4,19.5-14.5,32.4c4.9,21.8,14.3,41.4,30,57.5
			c11.5,11.8,26.2,16.8,42,19.6c10.4,1.8,21.1,2.7,31,7c13.7,6,21.7,17.4,28.6,30c5,9.2,10.2,18.3,16,27c7.4,11,17.7,17.1,31.4,18.3
			c15.7,1.4,29.1-3.7,41.5-12.3c9.5-6.6,18.3-14.3,27.6-21.4c13-9.9,28.3-14.2,44-17.5c4.1-0.9,8.3-1.4,12.5-2"/>
		<path class="st0" d="M1750.2,0c0.7,14,1.5,28,1.9,42c0.1,4-0.8,8-1.4,12c-2,12.2-10.5,18.6-21,23c-11.6,4.8-23.4,8.8-35,13.7
			c-6.4,2.7-12.8,5.7-18.5,9.5c-9.2,6.3-10.8,17.2-4.6,27.9c13,22.3,28.5,42.6,48.5,59c12.6,10.3,27.3,16,43.5,17.5
			c20.5,1.9,39.7,7.6,57.1,18.9c5.5,3.6,11.7,6.3,18,8.5c10.6,3.8,18.6-4.1,16.5-15.4c-2.4-12.7-9.6-22-19.1-30
			c-7.9-6.7-15.8-13.2-23.5-20c-7.9-7-11.6-16.5-13.3-26.5c-1.2-7-0.6-14.3-0.1-21.5c0.6-9.5,7.3-14.5,15.5-16.9
			c9.8-2.9,19.9-5.2,30-7.1c25-4.6,48-13.6,68-29.6c9.3-7.5,18.6-15,27.5-23.1c11.8-10.8,19.3-24.4,23.1-39.9c0.1-0.6,1-1,1.5-1.5"
			/>
		<path class="st0" d="M2560,848.1c-7.7-0.8-15.3-1.9-23-2.4c-7.8-0.5-15.8-1.3-23.5-0.3c-9.8,1.2-19.5,3.5-29,6.4
			c-19.1,5.8-36.2,15.9-53.1,26.4c-14.8,9.2-29.5,18.6-44.6,27.4c-8,4.7-10.1,3.5-16-4.4c-7-9.3-14.1-18.6-22.1-26.9
			c-9.1-9.5-20.3-16.4-33.4-18.4c-9.8-1.5-20.1-2.8-29,3.8c-7.8,5.8-9.5,14.4-7.8,23c3.1,16.1,10.2,30,24.8,39.1
			c9.4,5.8,19.4,7.8,30.5,6.7c12.2-1.2,23.3-5.3,34.5-9.7c5.6-2.2,8.2-2.3,11.4,3.1c4.8,8.2,8.9,16.9,13.1,25.5
			c5.1,10.6,9.9,21.4,15.1,32c4.2,8.4,9,16.4,16.9,22.1c9.4,6.8,19.7,6.8,29.4,2.7c6.8-2.9,12.6-8.2,18.6-12.8
			c10-7.7,19.3-16.2,29.6-23.3c13.2-9,28.5-13.1,43.9-16.7c4.5-1,9-2,13.5-3"/>
		<path class="st0" d="M853.3,0.5c10.8,9,22.9,15.9,35.5,22c19.3,9.3,38.8,18,59,25c12.1,4.2,24.4,8.3,34.5,16.5
			c8.5,6.9,15.8,15,22.1,23.9c2.3,3.3,4.9,6.5,8,9c9.5,7.4,13.5,5.6,23.4-2c4.8-3.7,9-8.3,13-13c12.6-14.7,29.1-22.3,47.6-26.5
			c11.5-2.6,23.2-3.9,35-2.9c13.2,1.1,24.4,7.2,34.5,15.4c13.8,11.3,24.6,25.4,36.6,38.4c11.7,12.7,24.6,24.3,41,30.4
			c12.1,4.5,24.6,6.5,36.5-1.8c9.2-6.4,12.8-15.8,15-26.1c2.5-11.9-1-23.2-3.9-34.5c-3.2-12.5-7-24.9-8.8-37.6
			c-1.5-10.6-0.3-21.6-0.3-32.5c0-1.5,0-3,0-4.5"/>
		<path class="st0" d="M192.6,0c0.2,21.2,3.4,42,8.1,62.5c3.3,14.7,7.4,29.2,12,43.5c5.8,18.2,14.5,35,26.5,50
			c6.7,8.4,14,16.7,25.5,17.9c7.6,0.8,15.3,0.5,23,0.1c12.2-0.7,24.1-3.5,36.5-1.6c13,1.9,26.3,2.2,39.5,3.2
			c10.5,0.8,20.8-1.2,30.4-4.7c18.4-6.6,36.7-13.9,54.5-22.1c8.5-3.9,16.1-10,23.5-15.9c10.9-8.6,22.8-15.2,35.6-20.4
			c21.7-8.9,36.5-24.9,47.6-45c6.8-12.4,15.7-23.3,25.4-33.6c9-9.4,17.7-19,26.5-28.5c1.4-1.6,2.4-3.6,3.5-5.5"/>
		<path class="st0" d="M893.3,0.5c9.3,6.3,18.5,13,28.1,18.9c14.4,8.9,30.4,13.6,47,16c6,0.9,12,1.8,18,2c16.5,0.5,30-5.6,40-18.9
			c2.3-3,4.8-5.8,7.5-8.5c3.7-3.7,7.3-3.7,10.9,0c6.8,6.9,14.7,11.8,24,14.5c9.4,2.7,19.1,3.1,28.5,1.3c13.6-2.6,27.1-6.4,40.5-9.9
			c15.9-4.1,22.7-0.1,31,10.6c8.5,10.9,16,22.6,24.7,33.4c10.6,13.2,21.2,26.6,36,35.5c4.1,2.5,8.5,4.6,13,6
			c9.6,2.8,17.9-3.3,17.3-13.4c-0.5-9.1-2.9-18-4.3-27c-1.6-10.2-3.3-20.3-4.4-30.5c-1-9-1.4-18-2.1-27c-0.1-1.2-0.6-2.3-1-3.5"/>
		<path class="st0" d="M2560,1030.2c-5,0.8-10,1.5-15,2.5c-14.2,3-26.6,10-38.5,18c-16.4,11-34.4,17.2-54,19.7
			c-13.1,1.7-26.1,4.5-39,7.5c-14.8,3.4-21.2,14.4-24.1,28.4c-2.2,10.3-3.5,20.6-2.9,31c1.2,19.4,6.9,34.4,30,42
			c6.8,2.3,13.6,4.6,20.5,6.5c20.6,5.5,36.4,18,48.9,34.6c10.8,14.3,22,28.5,29.6,45c5.5,12,8.7,24.6,11,37.5
			c1.9,10.5,3.8,21.2,9.5,30.5c1.4,2.3,3.6,4.9,6,5.9c5.8,2.5,11.9,4.2,17.9,6.2"/>
		<path class="st0" d="M219.6,0c-1.1,28.4,4.6,55.8,13.5,82.5c5.7,17,14.4,32,29,43c7.2,5.5,15.6,8,24.5,9
			c22.6,2.5,45.2,4.1,67.1,11.3c14.4,4.7,29.2,4.4,42.9-3.4c4-2.3,7.4-6,10.5-9.5c2.7-3,2.1-7-0.4-10c-5.7-6.9-13.6-10-21.5-13
			c-17.1-6.6-32.6-15.7-45-29.5c-12.3-13.7-25.1-27-36.9-41.1c-8.5-10.1-14.6-21.8-17.7-34.9c-0.3-1.5-1.6-2.7-2.4-4"/>
		<path class="st0" d="M1745.2,1440c2-7.7,4.3-15.3,5.9-23c2.9-14.1,5.5-28.3,8.1-42.5c3.9-21.9,12.6-41.5,27-58.6
			c3.8-4.5,6.9-9.5,10-14.5c5.9-9.5,2.8-16.7-5.6-22.3c-11.6-7.7-24.9-11.4-38.9-12.8c-15.7-1.6-29.5,3.6-42.5,11.3
			c-11.2,6.6-21.9,13.9-32.5,21.5c-10.7,7.6-16.4,18.8-18.4,31.5c-1.3,8.2-1.9,16.7-2,25c-0.1,11.9-1.2,23.7-3,35.5
			c-1.2,7.9-2,16-1.9,24c0.1,8.2,1.5,16.3,2.3,24.5"/>
		<path class="st0" d="M2560,1060.2c-17.4,3.6-31.4,13.8-46,23c-7.6,4.8-16.1,7.1-25,8c-14,1.5-28.2,1.8-42,4.3
			c-16.6,2.9-30.1,10.5-34.6,28.8c-3.3,13.2,1.8,27.3,15.1,33.1c10.7,4.7,22.1,6.6,33.5,7.9c16.8,2,28.8,10.2,35,26.1
			c6.4,16.5,14.9,31.9,24.1,47c8.8,14.4,14.9,29.8,19.6,46c3.3,11.3,6.8,22.8,14.9,32c1.5,1.7,3.3,3,5,4.5"/>
		<path class="st0" d="M117.5,0c8.8,15.7,18.2,31.1,26.4,47.1c9.3,18.2,15.3,37.7,20.7,57.5c4.9,18,9.9,36.1,15,54
			c2.9,10.2,5.3,20.3,5,31c-0.3,11.3-8.3,19.9-19.6,21c-11.3,1.1-22.4-0.6-33.5-2.5c-13.1-2.3-26.3-4.1-39.5-1.4
			c-10.2,2.1-19.4,6.9-27.5,13.4c-13.1,10.5-25.9,21.6-39.1,31.9c-6.7,5.2-14.3,9.4-21.4,14.1c-1.3,0.8-2.3,2-3.5,3"/>
		<path class="st0" d="M2360.4,0c-4.6,19.5-0.2,37.1,11.5,53c6.9,9.4,13.2,19.3,16.3,30.6c2.3,8.3,3.4,16.9,4,25.5
			c0.9,12.5,0.5,25,1.3,37.5c0.3,4.3,0.3,8.8,3.7,12.6c3.7,4,7.7,5.5,13.1,5.5c14.9,0,29.2-2.5,42.5-9.6
			c13.9-7.4,21.3-21.9,18.8-39.6c-1.9-13.8-7.4-26.3-11-39.4c-4.3-15.9-5.5-31.8-3.4-48.1c1.2-9.3,2-18.7,3-28"/>
		<path class="st0" d="M0.5,482.3c6,4.3,12.2,8.4,17.9,13.1c6.6,5.4,10.7,12.9,14.6,20.4c7.2,13.9,14,28.1,22.1,41.5
			c11.3,18.7,28,30.1,49.9,33.7c7.9,1.3,16.1,3,23.4,6.1c13.2,5.5,21.2,15.6,22,30.3c0.6,10.5-0.7,20.7-6.4,30.1
			c-6.5,10.6-15.5,17.1-28,16.2c-7.9-0.6-15.8-3.1-23.5-5.3c-11.4-3.2-22.5-8-34.1-10.1c-8.5-1.6-17.6-0.1-26.4,0.2
			c-3.8,0.2-7.7,1.1-11.5,1.4c-6.8,0.5-13.7,0.7-20.5,1"/>
		<path class="st0" d="M0.5,1208.8c2.8,4.5,5.3,9.2,8.6,13.5c10.1,13.3,20.1,26.7,27.9,41.6c5.5,10.3,9.9,21.1,12.4,32.5
			c3.3,14.8,6.6,29.6,8.9,44.5c1.9,12,8.9,19.6,18.7,24.9c16.1,8.6,33.2,14.6,51.5,16.6c8.6,1,17.4,2.1,26,1.9
			c10.9-0.4,21.7-2.1,32.5-3.3c9.1-1,18.3-3.7,26.9,1.2c3.2,1.8,6.7,4.8,7.8,8c2.1,6.3,3.2,13,2.4,19.9c-1.1,9.9-1.2,20-1.7,30"/>
		<path class="st0" d="M2560,697c-13.2-3.1-24.6-9.7-35.5-17.5c-14.3-10.1-28.1-21.1-44.1-28.4c-7.4-3.4-15.1-6.7-23-7.7
			c-7.4-0.9-14.7,2.3-19.5,9.1c-4.9,7-7.9,14.6-8.4,23c-0.5,8.7-1.2,17.4-0.9,26c0.4,10,1.9,20,2.9,30c0.5,4.7,0.9,9.3,1.5,14
			c2.4,19.2,15.2,28.3,32.5,32.5c15.3,3.7,30.7,6.4,46,10.2c16.3,4,32.4,8.6,48.5,12.9"/>
		<path class="st0" d="M2559.5,324.2c-11.3-7.2-22.3-15.1-34.1-21.3c-18.9-10-41.3-7.8-58,6.3c-13.5,11.3-22.7,25.8-31.4,40.6
			c-6.1,10.5-11.2,21.6-14,33.5c-1.9,8.2-2.9,16.7-1,25c2.9,12.6,11.8,18.1,24.4,15.5c12.7-2.6,25.3-5.5,38-7.9
			c4.2-0.8,8.7-0.7,13-1.1c4.5-0.3,9-1.2,13.5-0.9c11.4,0.7,22.7,1.9,34,2.9c5.2,0.5,10.3,1,15.5,1.5"/>
		<path class="st0" d="M418.2,1439.5c3.2-16.7,6.6-33.3,9.4-50.1c1.3-7.4,2.1-15,2-22.5c-0.3-27.9-10.1-45.2-38.9-54.5
			c-16.9-5.4-34.3-6-51.5-1.9c-20.6,4.9-32.2,19-36.5,39.4c-3.5,16.5-6.3,33.1-10.1,49.5c-2.9,12.6-6.9,25-10.4,37.6
			c-0.3,1-0.3,2-0.5,3"/>
		<path class="st0" d="M676.8,1440c0.5-9.8,1.5-19.7,1.4-29.5c-0.1-12.4-1.1-24.6-6.8-36.1c-7.3-14.6-16.6-27.8-26.7-40.4
			c-7.1-9-12.7-9.8-22.5-3.5c-9.7,6.2-19.2,12.9-29.1,18.9c-12.9,7.8-27,12.3-42,14.1c-14.5,1.7-29.1,3.2-43.5,5.6
			c-18.3,3-29,15-35,31.9c-3.8,10.7-6.3,21.7-7,33c-0.1,2-0.6,4-1,6"/>
		<path class="st0" d="M2560,457.8c-12.5-0.3-25-1.1-37.5-0.9c-17.1,0.2-31.7,6.3-41.4,21c-5.9,9-9.3,19.4-11.6,29.9
			c-3.4,15-7.4,29.9-9.8,45.1c-2,12.3-3.9,24.9-0.3,37.5c2.2,7.7,5.9,14.2,11.1,20c9.6,10.7,21.1,19.1,33,27
			c14.4,9.6,28.9,19.1,43.5,28.5c3.9,2.5,8.3,4.4,12.5,6.6"/>
		<path class="st0" d="M2133.8,0.5c-2.2,0.8-4.9,1.1-6.4,2.6c-11.4,10.7-21.2,22.7-27.1,37.4c-9.6,23.9-5,53.9,13.5,72.1
			c5.3,5.2,10.4,10.4,18,12.6c20.5,5.9,37.6-4.4,42.4-23.6c5.4-21.6,2.3-42.7-7.6-62.4c-5.6-11.2-13.1-21.5-19.9-32.1
			c-2.3-3.6-5.3-6.5-10-6.5"/>
		<path class="st0" d="M60,0.5c9,7.3,18,14.7,27,22c21,17.1,33.7,39.7,43,64.6c3,8,4.6,16.4,5.8,25c0.9,6.2,0.2,12.1-0.7,18
			c-2,13.2-10.3,20.7-22.5,24.5c-9.5,2.9-19,5.8-28.5,8.5c-13.5,3.7-24.7,11.3-34.5,21.1c-12.1,12.1-24.4,23.9-40,31.5
			c-3.1,1.5-6.3,2.7-9.5,4"/>
		<path class="st0" d="M2559.5,879.6c-9-3.7-18.3-6.4-28-7.6c-27-3.4-49.8,6.2-70.4,22.3c-7.8,6-14.5,13.5-21,21
			c-6.8,7.8-8.8,26.8-2.2,35c6.8,8.5,12,8.4,18.6,4.9c8.2-4.3,16.1-9.2,24-13.9c14.6-8.6,30.1-15.2,46-21c11.2-4.2,22.4-8.6,33.5-13
			"/>
		<path class="st0" d="M402.2,1439.5c3.3-15,6.8-30,10-45c2.6-12.3,3.1-24.9,0.3-37c-3.8-16.3-14.9-26.7-31.3-30.5
			c-20.1-4.6-38-0.1-51.9,15.5c-8.9,10-12.5,22.8-15.5,35.5c-3.7,15.7-6.7,31.7-10.1,47.5c-1,4.7-2.3,9.3-3.5,14"/>
		<path class="st0" d="M0,1025.2c5.7-1.2,11.4-2.1,17-3.5c17.8-4.4,29.5-15.2,35.2-32.9c4.9-15.3,8.1-30.8,10.3-46.6
			c1.2-9.1,2.3-18.4,1.9-27.5c-0.4-9.2-1.9-18.6-4.5-27.5c-4.9-16.8-10.5-33.5-19.8-48.6c-9.3-15.1-22-25.1-40-27.5"/>
		<path class="st0" d="M2560,354.7c-9.8-6.8-19.8-13.5-29.5-20.6c-9.4-6.9-19.5-12.3-31.1-13.2c-5.2-0.4-11,1.6-15.9,3.9
			c-16.1,7.4-25.9,20.6-32.1,36.9c-1.9,5.2-3.8,10.2-3.1,16c1.3,11.7,6.6,16.6,17.2,17.7c13.7,1.4,27.6,0.2,41.5,0.4
			c10.5,0.1,21,0.6,31.5,1c7.2,0.3,14.3,0.7,21.5,1"/>
		<path class="st0" d="M303.6,0c3.1,11.7,9.8,21.6,17.1,31C334,48,350.1,62.3,368.2,74c13.3,8.6,28.1,14,44,15.5
			c8.8,0.8,17.8,1.1,26.5-0.1c8.9-1.2,15.4-6.3,19.8-15.1c5.6-11.1,8-22.6,9.2-34.7c1.3-13.2,2.1-26.3,3.1-39.5"/>
		<path class="st0" d="M2560,471.8c-8-0.3-16-1.2-24-0.8c-8.7,0.4-17.4,1.3-25.6,5.2c-11.1,5.3-18,14-22.5,25.1
			c-5.8,14.5-8.9,29.5-10.7,45c-1.3,11.1-0.4,21.8,2.1,32.6c3.6,15.5,13.6,26.8,25.2,36.4c16.7,13.8,35.3,24.5,55.4,32.7"/>
		<path class="st0" d="M1623.1,1440c-1.3-9.2-3.3-18.3-3.8-27.5c-0.6-10.8,0.3-21.7,0.3-32.5c0-11.1,1.1-22.6-5.5-32.5
			c-4.5-6.7-12.7-9.3-20.5-7.6c-12.2,2.7-22.2,9.4-31.4,17.2c-12.9,10.9-26.4,20.8-41.1,28.8c-14.7,8-22.1,20.4-24,36.6
			c-0.7,5.8-1.3,11.7-2,17.5"/>
		<path class="st0" d="M1762.2,0c2.5,19.9,6.4,39.3,18.5,56c7.9,10.9,19.5,16,32,18.4c32.1,6.2,61.7,0.7,87.5-20.4
			c16.1-13.1,27.7-29.2,33-49.5c0.4-1.5,0.7-3,1-4.5"/>
		<path class="st0" d="M380.6,1440c2.2-6.5,4.5-13,6.5-19.5c3.3-11.1,7.2-22.2,9.3-33.6c1.4-8,0.8-16.5-2.6-24.5
			c-7.2-17.1-27.8-22.3-43.6-11c-11.5,8.3-16.5,20.5-19.3,33.6c-2.2,10.1-3,20.6-4.1,31c-0.9,8-1.4,16-2,24"/>
		<path class="st0" d="M1607.1,0c1.3,13.2,1.4,26.6,4.3,39.5c3.4,14.9,13.7,24.9,28.7,29c26.1,7.2,51,2.4,74.4-9.7
			c14-7.2,20.6-20.4,22.6-35.8c1-7.6,1.4-15.3,2.1-23"/>
		<path class="st0" d="M0,433.8c20.7-1.7,40.6-6.1,57.5-19.1c11.3-8.6,16.1-20.8,18.1-34.5c2-13.3-0.9-25.7-5.5-38.1
			c-7.9-21.4-23.5-33.6-45.2-38.3c-8.1-1.7-16.6-1.5-25-2.2"/>
		<path class="st0" d="M2519.5,1440c-1-18.6-2.5-37.1-8-55c-3.7-11.9-11.7-18.1-24-19.6c-22.3-2.6-42.1,3.6-59.5,17.2
			c-20.7,16.2-38.9,34.8-52.6,57.4"/>
		<path class="st0" d="M990.9,1440c1-3,2.5-5.9,2.9-9c0.6-5,0.1-9.6-4.3-13.6c-19.3-18-39.9-34-63.6-46c-8.2-4.1-17-6-26-4.8
			c-9.6,1.3-18.4,8.8-22,22.4c-4,15.3-1.4,30.3,3.4,45c0.7,2.1,1.6,4,2.5,6"/>
		<path class="st0" d="M2560,488.8c-9.9,0.2-19.7-0.4-29.5,1.9c-11.6,2.7-20.4,8.9-25.9,19.2c-10.7,20.2-13.5,41.3-6.7,63.5
			c4.2,13.7,13.6,23.4,24.2,31.9c11.1,8.8,24.1,14.3,37.4,19.1"/>
		<path class="st0" d="M717.8,0c5.3,18.1,15,33.8,28.1,46.9c12.3,12.3,25.6,23.7,42.9,28.6c4.7,1.3,9.6,2.5,14.5,2.9
			c6,0.5,10.2-6.9,8-13.9c-2.5-7.9-5.5-15.6-7.9-23.5c-3.7-12-7.1-24-10.5-36c-0.5-1.6-0.7-3.3-1-5"/>
		<path class="st0" d="M0,828.1c17.4,6.3,27.9,19.6,34.3,36.1c4.1,10.5,7.2,21.5,9.5,32.5c5.5,26.4,2,52-11.6,75.4
			c-7,12.2-17.8,21.1-32.3,24.1"/>
		<path class="st0" d="M320.1,0.5c2,3.2,4,6.3,6,9.5c11.8,18.9,27.8,33.3,46.5,45.1c9.9,6.2,20.7,10,32.1,12.4
			c18.3,3.8,36.4-8,41-26.5c3.4-13.5,4.2-27.2,4-41"/>
		<path class="st0" d="M1775.2,0c4.5,25.4,21.9,51.1,51.5,56.7c24.3,4.6,45.2-1.1,62.5-18.7c8.7-8.8,12.9-20.2,16-32
			c0.5-2,0.7-4,1-6"/>
		<path class="st0" d="M0.5,510.4c17.8,21,28.1,46.4,40.4,70.6c3.3,6.5,5.6,13.6,8.1,20.5c3.7,10.6,1.5,17.9-8,22.9
			c-10.7,5.6-22.3,8.8-34.5,9.6c-2.2,0.2-4.3,0.6-6.5,1"/>
		<path class="st0" d="M195.6,1440c-3.4-17.8-13.4-29.2-31.5-32.5c-12.6-2.3-25.3-4.3-38-6c-6.9-0.9-14-1-21-1.1
			c-15.6-0.2-24,7.6-27,19.5c-1.7,6.6-3,13.3-4.5,20"/>
		<path class="st0" d="M499.7,0c-1.3,8.8-3.3,17.6-3.8,26.5c-0.6,9.3-1.3,18.6,0.7,28c3,14,15,14.8,23.5,7.8
			c7.5-6.2,13.4-14.3,20.2-21.3c8.5-8.8,17.3-17.3,26-26.1c4.9-4.9,9.7-10,14.5-15"/>
		<path class="st0" d="M1624.1,0c2.4,29.2,18.4,51.1,51.5,50.4c32-0.7,48.9-19.6,51.5-50.4"/>
		<path class="st0" d="M1470.1,0c5.9,10.3,15.2,16.9,25,23c14,8.7,29.4,14.3,45.1,18.9c7.9,2.3,16,4,24.5,1.7
			c9.4-2.6,14.7-8.8,18-17.6c2.9-7.6,5.1-15.3,5.5-23.5c0-0.7,0.9-1.3,1.4-2"/>
		<path class="st0" d="M2560,722c-11.7-1-23.3-2-35-3c-5-0.4-10-0.9-15-1c-9.8-0.1-15,7.7-11,16.5c4.6,9.8,10.6,18.5,19.5,25
			c12.8,9.4,26.4,17.5,41.5,22.5"/>
		<path class="st0" d="M0.5,418.3c2-0.8,3.9-1.9,6-2.5c12-3.4,23.6-8,31.9-17.6c14.8-17.2,14.1-30.7,3.5-46.9
			c-3.9-5.9-10.8-8.5-17.4-10.5c-7.9-2.5-16.2-3.4-24.5-3.1"/>
		<path class="st0" d="M0,1341.4c10,3,20.1,5.9,30,9c8.3,2.7,14.9,7.9,20.4,14.5c1.3,1.6,2.1,3.9,2.5,6c1,6.1,2.2,12.3,2.5,18.5
			c0.6,13.3,0.8,26.7,1,40c0,3.5-0.6,7-0.9,10.5"/>
		<path class="st0" d="M0.5,847.6c1.3,1.7,2.4,3.6,4,5c12.1,10.5,16.9,24.7,19.8,39.6c1.5,7.7,2.2,15.7,2,23.5
			C26,935,19.1,951.4,2.5,962.7c-0.8,0.5-1.3,1.3-2,2"/>
		<path class="st0" d="M340.1,0.5c3.3,4,6.7,7.9,10,12c12.6,15.8,28.9,25.6,48.5,30c7.1,1.6,17.7-4,21.6-10.4
			c4.4-7.3,6.4-15.1,6.5-23.6c0-2.8,0.6-5.7,1-8.5"/>
		<path class="st0" d="M2560,516.9c-5.3,0.5-10.7,1-16,1.5c-17.2,1.7-28.7,22.4-24.6,39.5c4.6,19.4,21.3,35,40.6,37"/>
		<path class="st0" d="M1790.7,0.5c2.7,4.2,5.3,8.4,8,12.5c8.4,12.8,20.4,20,35.5,21.5c22.6,2.3,35.7-10.6,40-30
			c0.3-1.5,0.7-3,1-4.5"/>
		<path class="st0" d="M1219,1440c2.8-7.8,5.8-15.6,8.4-23.5c1-3.2,1.3-6.6,1.5-10c0.5-8-5.9-12.6-13.5-10
			c-12.4,4.2-24.8,17.9-23.5,33c0.3,3.5,0,7,0,10.5"/>
		<path class="st0" d="M0.5,1130.8c2-3.3,3.7-6.9,6.1-10c7-9.1,14.5-17.9,21.3-27.1c3.2-4.3,5.3-9.5,7.6-14.4
			c2.9-6.4-0.8-15.4-7.4-18.5c-8.9-4.2-18.3-5.4-28-5.5"/>
		<path class="st0" d="M2499.4,1440c-0.4-11.1-3.9-21.5-10.7-29.8c-6.4-7.8-15.8-9.7-28.3-2.6c-10.7,6.1-18.8,15.2-26.5,24.5
			c-2.1,2.5-4,5-6,7.5"/>
		<path class="st0" d="M0.5,1241.9c5.5,7.3,11.6,14.3,16.4,22.1c6.3,10.1,10.5,21.2,10.6,33.4c0.1,13.3-8.1,21.6-21.5,22.1
			c-2,0.1-4,0.6-6,1"/>
		<path class="st0" d="M1639.6,0.5c2.5,4.5,4.7,9.2,7.6,13.5c12.6,18.4,35.4,22.3,53.9,7.9c5-3.9,8.5-9.6,10.6-15.9
			c0.7-2,1.6-4,2.5-6"/>
		<path class="st0" d="M40.5,1440c-0.3-15.3-1.3-30.5-6.6-45c-5.6-15.7-16.5-26.8-31.5-34c-0.7-0.4-1.7-0.4-2.5-0.5"/>
		<path class="st0" d="M2560,1368.5c-15.4,4.4-22.6,15.2-23.4,30.5c-0.8,13.7-0.8,27.3-1.1,41"/>
		<path class="st0" d="M2560,1210.3c-7.2,3.4-9.8,10-9.3,17c0.7,11.1,2.5,22.1,4.4,33c1.1,6.3,3.2,12.4,4.9,18.5
			c0.2,0.6-0.1,1.3-0.2,2"/>
		<path class="st0" d="M2534.5,0c-0.3,13.5,0.4,27.1,4.6,40c3.5,10.5,9.1,19.8,20.4,24.1"/>
		<path class="st0" d="M161.6,1440c-3.5-5.7-9.4-8-15-10.4c-10.6-4.6-21.6-6.4-33-2.6c-6.8,2.2-12.4,5.8-15.5,12.5"/>
		<path class="st0" d="M2252.4,1440c-0.4-8.2-0.8-16.4-7.5-22.5c-5.9-5.4-13-5.3-19,0c-6.7,5.9-9.3,13.7-11,22.1"/>
		<path class="st0" d="M513.2,1439.5c2.7-4.3,5.8-8.5,7.9-13.1c2.3-5.1,1-9.7-2.4-12c-3.3-2.2-8.6-1.3-12.5,2
			c-5.8,5-7.3,14.8-3.5,23.5"/>
		<path class="st0" d="M0,1380.5c11.9,8.1,18.4,19.9,21.4,33.6c1.8,8.5,2.2,17.3,3.2,26"/>
		<path class="st0" d="M928.4,0.5c4.2,2.3,8.2,4.9,12.5,7c11.8,5.5,23.8,7.8,35.5-0.5c2.8-2,5.4-4.3,8-6.5"/>
		<path class="st0" d="M1506.6,0.5c7,3,13.8,6.5,21,8.9c12,4.1,22.5,1.4,31-8.4c0.2-0.3,0.7-0.3,1-0.5"/>
		<path class="st0" d="M760.3,1439.5c-7.3-4.8-14.9-8.6-24-9.1c-8.2-0.5-13.7,2.8-17.5,9.6"/>
		<path class="st0" d="M2559.7,1399c0.1,0.5,0.4,1.2,0.2,1.5c-5.8,8.3-6.6,17.8-6.5,27.5c0,4,0,8,0,12"/>
		<path class="st0" d="M1663.6,0.5c3.2,1.7,6.2,3.8,9.5,4.9c7.4,2.4,13.8,0,19.5-4.9"/>
		<path class="st0" d="M0.5,1411c1.8,7,3.8,14,5.4,21c0.6,2.6,0.4,5.3,0.6,8"/>
		<path class="st0" d="M1580.1,1440c-7.4-10.7-16.4-11.6-25.5-2.5c-0.7,0.7-1.3,1.3-2,2"/>
		<path class="st0" d="M0.5,888.6c0,8.7,0,17.3,0,26"/>
		<path class="st0" d="M0.5,371.3c0.5,1.2,0.8,2.5,1.5,3.5c3.1,4,2.2,7.8-0.5,11.6c-0.6,0.8-0.7,2-1,3"/>
		<path class="st0" d="M1899.7,620.9c-4.3,1.2-9.2,1.5-12.9,3.7c-12.4,7.3-19.6,18.4-20.5,32.9c-0.6,10-0.6,20,0,30
			c0.9,13.7,2.9,27.3,3.8,41c0.9,12.7,2.9,25,7.1,37c4.9,14.1,13.5,26,22.6,37.5c15.2,19.1,30.4,38.3,46.1,57
			c6.5,7.7,13.6,15.1,22.9,19.5c11,5.3,22.8,5.2,33.9,0.9c15.4-5.9,28.3-16.1,41.1-26.3c14.5-11.5,27.7-24.3,40.4-37.6
			c5.8-6.1,10.9-12.7,13.6-20.9c3.4-10.2,1.6-19.2-5.6-27c-5.8-6.3-12.7-11.2-20.4-15.1c-15.3-7.6-30.5-15.3-45.5-23.5
			c-22.5-12.3-39.5-30.3-53.7-51.4c-9.7-14.5-19.4-29.1-32.3-41.2c-11.4-10.6-24.1-17.3-40.1-16.4"/>
		<path class="st0" d="M1743.7,635.9c-5.5,1.3-11.2,2.2-16.5,4.1c-13.4,4.8-24.3,13.4-34.5,22.9c-16.4,15.2-29,33.5-42.1,51.4
			c-10.6,14.4-22.4,28-33.3,42.2c-6.2,8-11.9,16.7-10.9,27.5c0.5,5.3,2.2,10.6,4.5,15.5c5.3,11.5,11.2,22.7,16.9,34.1
			c6.6,13.3,10.4,27.4,12.5,42c1.8,12.8,3.7,25.6,4.9,38.5c1.2,13.1,3.3,25.9,7.1,38.5c6.3,20.9,17.8,37.8,37,49.1
			c11.6,6.8,23.9,12,37.1,13.1c18.2,1.6,35-2.9,47.5-17.8c5.4-6.4,6.2-14.1,4.5-22c-2.8-13.1-2.1-26.3-1.1-39.5
			c1.2-17.3,2.2-34.7,1.9-52c-0.2-11.7-4.3-23-9.7-33.5c-3.3-6.3-6.6-12.6-7-20c-0.6-9.2,3.1-16.9,7.5-24.5
			c9.7-17,16.7-34.9,18.5-54.5c0.8-8.8,2.2-17.7,1.8-26.5c-0.6-13.7-2.1-27.4-3.9-41c-1.1-8.4-2.5-17.1-5.6-24.9
			c-6.3-16.1-19-23.3-36.3-22.6"/>
		<path class="st0" d="M1273.5,594.9c-12.8,4.5-18.7,14.9-16.5,28.5c2.1,12.7,6.6,23.5,19.5,29.1c8.2,3.6,14,2,18-6.1
			c5.8-11.6,4.5-23.5-0.1-35c-2.9-7.4-7.6-13.7-15.9-16c-1.4-0.4-3-0.4-4.5-0.5"/>
		<path class="st0" d="M1422.5,576.9c-11.6,1.6-20.1,8.1-26.5,17.5c-8.4,12.5-9.4,26.7-7.4,41c2.8,20.9,11.9,39.4,23.9,56.6
			c14.4,20.6,34.5,33.1,58.6,38.8c12.2,2.9,24.4,0.5,35.5-6.2c19.2-11.6,36.2-25.8,50.4-43.1c9.6-11.7,15.9-25,18.6-40
			c1.7-9.4,2.6-18.9-2.1-27.4c-5.7-10.3-15.8-14.8-26.9-15.9c-15.3-1.6-30.7-2-46-3.2c-13.7-1.1-26.9-4.4-39.5-9.9
			c-12.1-5.3-24.5-9.1-38-8"/>
		<path class="st0" d="M1286.5,547.9c-9.6,1.9-18.6,5-27.1,10.4c-14.8,9.3-23.1,22.5-26.4,39.2c-4.9,24.7-0.3,48.1,10.4,70.6
			c3.8,8,7.5,16.2,10.4,24.5c3.5,9.9,0.9,19.6-6,26.8c-12.1,12.6-25.1,24.2-37.9,36.2c-5.1,4.7-12.2,6.5-17.9,4.2
			c-16.4-6.4-29.2,0.4-41,10c-11.4,9.2-22.2,19.1-32.5,29.5c-17.7,17.9-30.4,39.2-38.5,63c-4.2,12.4-6.5,25.4-4.9,38.5
			c1.9,15.9,8.1,25.6,27.4,30.4c17.9,4.5,36,4.9,54,0c12.8-3.5,21.7-11.7,28.2-23.4c7.5-13.7,10.5-28.8,14.4-43.6
			c3-11.3,6-22.7,9-34c1.7-6.2,5.1-11.4,10-15.5c1.3-1.1,3-2.4,4.5-2.4c7.3-0.1,14.7,0.2,22,0.4c4.5,0.1,9.1,0.9,13.5,0.4
			c9.2-1.1,18.4-2.1,27.1-6.2c12.2-5.8,19.8-15.5,23.8-27.7c4.4-13.3,7.4-27,11.2-40.5c2.3-8.4,5-16.7,7.5-25
			c3.3-11.2,4.6-22.4,2.6-34c-0.9-5.4-0.7-11-1.1-16.5c-0.9-12-2-24-3-36c-0.7-9.2-1.1-18.4-2.1-27.5c-1.3-11.4-2.5-22.9-7.4-33.6
			c-5.8-12.8-16.2-17.7-29.6-18"/>
		<path class="st0" d="M1733.7,663c-20,4.9-33.4,18.7-45.5,34.1c-7.1,9-12.8,19-17.6,29.5c-6.7,14.5-14.3,28.6-20.8,43.1
			c-5,11-5,22.8-2.1,34.5c3.4,13.5,7,26.9,9.9,40.6c1.6,7.8,2.2,16,2.6,24c0.6,12.8,0.2,25.7,1.2,38.5c1.2,14.6,3.3,29.2,11.3,42
			c6.3,10,14.6,16.8,27,15.9c9.4-0.7,16.5-6.1,22-13.4c9.5-12.8,16.6-26.8,19.4-42.5c1.3-7.1,0.7-14.7-2.4-21.5
			c-4-8.9-9.7-16.8-16.3-24.1c-5.6-6.2-10.9-12.9-15.5-20c-7.7-11.9-7.4-33,6-45.4c7.5-7,15.7-13.4,24-19.5
			c11.8-8.7,20.8-19.5,25.7-33.2c2.7-7.4,4-15.6,4.5-23.5c0.7-10.5,0.9-21.1-1.8-31.5c-3.1-11.8-7.1-23.1-20.5-26.9
			c-3.3-0.9-7-0.4-10.5-0.6"/>
		<path class="st0" d="M518.2,669c-6.2,1-11.7,3.2-16,8c-5,5.6-5.5,12-3.6,19c2,7.3,6.8,11.6,14.1,12.9c2.4,0.4,5.2-0.3,7.4-1.5
			c9-4.6,14.5-17.6,12.1-27.9c-1.9-7.9-5.2-10.5-13.5-10.5"/>
		<path class="st0" d="M1917.7,670c-10.2,3.3-15.7,10.7-16.5,22.5c-0.5,8.3-1.1,16.7-1,25c0.2,22,6.9,41.7,22,58
			c13,14,26.1,28,39.6,41.5c6.4,6.4,13.1,13,21.9,16c13.8,4.8,27.1,2.8,38.9-5.6c5.6-4,10.6-9.1,15-14.5c8.5-10.3,7.6-25.1-1.9-35
			c-8.5-8.9-18.3-16.1-28-23.6c-8.9-6.8-18-13.7-25.9-21.6c-8.4-8.4-15.5-18.2-23.2-27.4c-6.2-7.3-12.3-14.7-18.5-22
			c-5.9-6.8-12.7-12.1-22-13.5"/>
		<path class="st0" d="M2016.8,496.8c-6.5,1.7-13.3,2.6-19.4,5.2c-8.1,3.4-16.7,6.5-21.6,14.8c-6,10.3-5.6,21-2.5,32
			c6.4,22.6,17.8,43,29.6,63c6.8,11.4,14.3,22.6,22.5,33c10.4,13.1,24.1,20.5,41.4,20.2c11.8-0.2,22.1-7.6,23.2-19.1
			c0.6-6.5-1.7-13.4-3.2-20c-3.6-15.1-8.1-29.9-11.3-45.1c-2.7-12.7-3.9-25.7-6.2-38.5c-2-11.5-6.3-22.3-13.6-31.4
			c-5.8-7.4-14.3-11.3-23.4-13c-4.9-0.9-10-0.8-15-1.1"/>
		<path class="st0" d="M2186.8,490.8c-4.8,1.7-9.8,3-14.5,5.1c-9.4,4.3-14.7,12.1-17,21.9c-4.8,20,5.7,38.5,24,45.1
			c11.7,4.2,23.4,4.6,35-0.1c4.4-1.8,9-4.2,12.4-7.5c8.1-7.8,16-15.8,22.9-24.5c4.7-5.9,7.2-13.5,2.1-20.8
			c-3.4-4.8-8.5-7.8-13.9-10.1c-16.2-6.7-33-9.9-50.5-9"/>
		<path class="st0" d="M2182.8,470.8c-4,0.7-8,1.3-12,2c-19,3.4-29.2,15.8-34,33.5c-4.6,17.4-2.9,34.4,5,50.5
			c6.2,12.6,16.7,20.7,29.4,26c11,4.6,22.7,7.5,34.5,7.8c11.8,0.3,23.5-2.6,32.4-10.9c20.6-19.1,44.2-34.6,64.1-54.4
			c8.7-8.6,10.8-19.2,8.3-30.5c-2.7-12.3-13.6-21.1-27.9-21c-16,0.1-32,1-48,0.8c-9.2-0.1-18.3-2.1-27.5-2.8c-8-0.6-16-0.7-24-1.1"
			/>
		<path class="st0" d="M1939.7,732c-5.2,3.6-5.8,4.5-3.4,9.9c2.2,4.9,4.7,10.2,8.5,13.9c10.6,10.1,21.8,19.6,32.9,29.1
			c1.8,1.5,4.7,2.6,6.9,2.4c3.5-0.3,4.5-5.2,2-8.3c-2.9-3.4-5.9-6.7-9-10c-8.6-9.4-17.2-18.8-26.1-28c-3.4-3.5-7.6-6.1-11.4-9.1"/>
		<path class="st0" d="M853.8,765.5c-9.6,1.4-17,6.9-22.9,14.1c-14.5,17.7-26.2,37.2-37.5,57c-9,15.8-10.4,32.4-5.2,50.1
			c5.2,17.9,14.4,33.2,27.2,46.5c7.1,7.4,14.9,14.5,18.8,24.1c4.2,10.4,6.8,21.5,9.7,32.5c2.1,8,4.4,15.8,8.5,23
			c4.9,8.5,12.9,12.8,21.6,15.3c13.2,3.9,26.6,7,40,10.1c17.1,4,34.3,7.8,51.5,11.5c9.4,2,18.7,2,27.5-2.9
			c9.6-5.4,14.3-16.8,12.1-27.6c-2.6-13-10.2-22.2-20.6-29.5c-24.5-17.2-48.1-35.5-74-50.6c-6.9-4.1-13.6-8.7-20-13.5
			c-13.8-10.3-17.3-24.9-14.9-40.9c2.4-15.5,6.8-30.6,9.2-46.1c3-19.5,1.6-38.7-8.3-56.6c-5-9-11.6-15.2-22.1-16.5"/>
		<path class="st0" d="M1410.5,772c-11.8,2.3-16.2,14.1-16.6,23.5c-0.5,10.6,2.7,20.1,7.7,29c5.8,10.1,16.7,14.2,27.4,10.1
			c12.7-4.8,22.7-12.2,26.5-26c2-7.2-1.8-13-5.7-17.9c-9.8-12.1-22.7-19-38.8-18.7"/>
		<path class="st0" d="M107,776c-3.7,0.7-7.5,0.9-11,2.1c-7.6,2.6-16.3,4.6-18.8,13.5c-1.7,6.2-2.3,13.1-1.5,19.4
			c1.8,14.3,6,28.1,12.4,41c4.9,9.8,10.7,19.2,16.4,28.6c6.7,11.1,10.3,23.1,8.8,36c-1.1,9.3-3.4,18.4-5.4,27.5
			c-2.1,9.9-3.3,19.5,0.4,29.6c4.4,12.1,17.6,17.9,29.7,11.9c7.4-3.7,13-9.3,17-16.5c3.7-6.6,7.3-13.4,11-20
			c8.4-14.9,20.3-26.6,34-36.5c5.9-4.2,11.4-8.7,14.6-15.5c2-4.2,2.3-8-0.1-12c-3.2-5.5-6.1-11.1-9.6-16.5
			c-7.1-11-10.6-23.3-14.4-35.6c-4.7-15-9.8-29.9-21.1-41.4c-8.9-9.1-20.5-13.3-32.9-14.5c-9.6-0.9-19.3-0.8-29-1.1"/>
		<path class="st0" d="M646.2,781c-13.2,2.3-18.9,11.7-21.4,23.5c-1.8,8.3,1.7,14,9.4,18c5.7,3,11.7,3.9,18,4.6
			c7.4,0.7,14.5-0.2,21.5-2.1c8.5-2.4,14.3-8.6,8.6-18.6c-7.2-12.5-17.4-20.9-31.1-24.9c-1.4-0.4-3-0.4-4.5-0.5"/>
		<path class="st0" d="M1662.6,470.8c-9.4,5.5-10.7,14.1-9.7,24c0.4,4.1,1,7.7,3.6,11c7.5,9.3,16.7,4.7,20-4
			c3.6-9.5,0.4-22.9-6.3-28.6c-2.3-1.9-4.4-2.6-7.1-2.4"/>
		<path class="st0" d="M1927.7,464.8c-16.3,3.6-29.2,12.6-40.6,24.5c-7.6,8-15.7,15.6-23.4,23.6c-2.4,2.5-4.3,5.5-6,8.5
			c-3,5.5-2.1,9.5,3.5,11.8c6.1,2.5,12.5,4.2,19,5.6c22.1,4.6,44.5,8.3,62.5,23.6c15.6,13.3,28.1,29.2,39.1,46.5
			c10.3,16.2,20.4,32.8,32.2,47.9c14.3,18.3,33.7,29,57.3,31.3c12.2,1.2,24.4,2.9,36.5,5c14.7,2.5,26.5,11,37.5,20.4
			c12.2,10.4,20.9,23.5,28.6,37.5c4.6,8.4,10.2,16.2,17.5,22.5c10.5,9.2,22.9,12,36.5,10c10.3-1.5,20.7-3.1,31-4.5
			c13.7-1.8,27.5-2.5,41-5.3c14.3-3,27.9-8.4,33-24.3c1.9-6,4-12.3,4.4-18.5c1.4-23.1-2.4-45.6-9.4-67.5c-1.6-5.1-4.2-10-7-14.5
			c-5-8.1-12.7-10.5-21.9-5.5c-8.1,4.4-13.7,11.6-19.6,18.4c-7.2,8.4-13.6,17.6-22.9,24.1c-10.1,7.1-25.4,7.1-34.5-1.2
			c-6.4-5.9-12.1-12.6-18.1-18.9c-13.1-13.9-28.7-23.3-47.5-27c-6.5-1.3-13.1-2.6-19.5-4.6c-13.5-4.2-22.4-13.8-29.1-25.9
			c-7.7-13.8-11.3-28.8-14.5-44c-3.7-18-5.8-36.4-11.4-54.1c-7-22.1-22.1-33.8-44.6-36.4c-11.1-1.3-22.3-2.1-33.5-2
			c-16.8,0.2-33.2-2-49.5-5.3c-8.7-1.7-17.3-1.8-26-1.8"/>
		<path class="st0" d="M1508.6,457.8c-2.8,1-5.7,1.9-8.5,3c-14.4,6.1-17.4,18.7-10,32c6.3,11.2,14.8,20,27,25.1
			c7.3,3.1,13.9,2.2,19.4-2.7c4.8-4.4,6.4-10.6,5.2-17.4c-1.7-10.2-6.6-19-12.1-27.5c-4.8-7.3-12.2-10.7-20.4-12.5"/>
		<path class="st0" d="M1011.4,811.1c-13.6,4.8-19.2,13.2-19.6,27.5c-0.3,11.7,3.3,21.3,12.1,29c4.1,3.6,13,3.7,17,0
			c8.5-8,12.6-18,13-29.5c0.1-3.7,0.3-7.4,0-11c-0.9-10-8.5-17.3-16.5-16.1c-1.8,0.3-3.7,0-5.5,0"/>
		<path class="st0" d="M1142.4,822.1c-26.7,8-41.4,27-47.3,53.1c-1.9,8.7-0.8,18,4.7,26c4.3,6.1,10.8,8.8,17.5,10.4
			c16.7,3.9,31.9-0.3,43.3-13.1c6.8-7.6,9.8-17.6,11.9-27.8c2.6-13.1,0.7-25.1-5.7-36.5c-5.2-9.4-13.7-12.5-24-12"/>
		<path class="st0" d="M1499.6,825.1c-15.3,4.2-27.5,13.9-39.4,23.7c-8.5,7-16.4,15-23.5,23.5c-11.9,14.4-11.5,28.6-1.4,44.3
			c7.7,11.9,17.1,22.8,26.4,33.6c12.4,14.5,22.1,30.4,28,48.6c8.2,25.4,25.1,42.5,50,51.5c10.5,3.7,21.2,7.1,32,9.4
			c6.4,1.3,13.4,1,19.9,0.1c10-1.4,16.9-11.1,18.6-22.3c3.2-21.8,2.5-43.7,1.7-65.5c-0.9-25.4-2.7-50.9-9.8-75.6
			c-6.1-21.3-16.9-38.9-37.4-49.7c-15.6-8.1-31.1-16.3-48.1-20.7c-5.2-1.3-11-0.5-16.5-0.7"/>
		<path class="st0" d="M150.1,445.8c-2.7,0.8-5.5,1.3-8,2.6c-11.4,5.8-16.9,22.5-11.2,33.6c3.4,6.6,11,8.9,16.7,7.8
			c10-1.9,20.3-12.4,22-22.5c2.4-14.5-7.4-22.1-19-21.5"/>
		<path class="st0" d="M344.1,415.8c-4.2,1-8.4,1.9-12.5,3c-8.1,2.2-14.3,7.8-20.4,13.1c-10.5,9.1-20.7,18.6-30.5,28.5
			c-6.6,6.7-12.6,14.1-15.6,23.4c-6.7,20.3,1.3,33.3,20.1,41c7,2.8,14.2,5,21.5,7c9.3,2.6,15.3,8.8,19.5,17.1
			c5.8,11.5,13.2,21.7,22.5,30.5c5.8,5.5,11.2,11.5,17.1,16.9c12.7,11.8,23.2,25.4,32.6,40c3.1,4.9,7,9.3,11,13.5
			c6.3,6.6,14.3,7.6,22.4,4.4c8.2-3.3,12.8-9.9,14.1-18.9c2.6-17.6-3.3-33.5-9.1-49.5c-3.3-9.1-8.2-17.2-14.5-24.5
			c-8.2-9.5-18.2-16.4-30.5-19.5c-15-3.8-30.1-6.9-45-11.2c-15.8-4.5-18.3-14.4-14.4-28.4c3.2-11.4,10.3-20.7,17.9-29.6
			c4.6-5.3,8.6-11,13.1-16.5c5.9-7.1,6-15.6,5.4-24c-0.5-6.9-8.5-14-16.4-15.5c-2.5-0.5-5-0.7-7.5-1"/>
		<path class="st0" d="M339.1,388.8c-8,2.2-16.2,3.7-24,6.6c-17.6,6.6-31.8,18.1-43.4,32.5c-7.3,9-14,18.6-20,28.5
			c-7.1,11.8-11.3,24.8-13,38.5c-0.9,6.9-1.1,14.1-0.5,21c1.1,11.5,8.2,19.5,17.4,25.4c9,5.8,19,10.3,27.9,16.2
			c11.9,8,23.2,16.7,34.6,25.4c11.5,8.9,22.9,18,34,27.5c10.4,8.9,17.9,20.2,23.5,32.5c4.3,9.4,7,19.5,11.2,28.9
			c5.9,13.1,16,21,30.9,22.1c8,0.6,16.1,1.6,24,3c8.2,1.4,15.1,5.6,21,11.4c8,7.7,15.6,15.8,24.1,22.9c10.1,8.4,22.2,10.9,34.9,7.5
			c10.1-2.7,17.5-9.5,23.5-17.9c6.3-8.7,10.1-18.6,14-28.5c6.2-15.4,12.9-30.6,18.8-46.1c2.5-6.6,5.2-13.4,4.7-21
			c-0.5-7.1-4.6-11.2-11.6-11.6c-10.8-0.6-20.9,2.5-31,5.5c-10.8,3.2-21.4,6.7-33,6.8c-13,0-22.9-5.6-29.8-15.8
			c-7.9-11.7-15.2-23.9-21.5-36.5c-11.6-23-27.6-41.8-48.6-56.6c-4.8-3.4-9.1-7.6-13-12c-7.4-8.3-6.4-18.1-4.1-28
			c2.6-11.2,6.3-22.2,7.2-33.5c1.3-15.8,1.7-32-12.2-44c-8-6.9-17.4-10-27.6-10.9c-6-0.5-12-0.1-18-0.1"/>
		<path class="st0" d="M537.2,387.8c-13.7,2.8-19,14-23.3,25.1c-3.8,9.9-5.9,20.5-8.2,30.9c-2.9,13.1,6.8,33.8,18.5,39.5
			c11.9,5.8,23.7,2.9,33.9-6.6c8.9-8.2,13.7-18.8,15.7-30.9c2.8-17.3-1.7-32.3-12.7-45.5c-6-7.2-13.8-11.7-23.4-12.6"/>
		<path class="st0" d="M1304.5,846.1c-6,1-12,1.9-18,3c-14.9,2.7-29.5,6.4-41,17.1c-8,7.4-13,16.7-16.7,26.9
			c-5.7,15.6-8.8,31.7-10.9,48.1c-1,8-2,16-3,24c-0.5,4-4.1,7.7-8,8c-3.1,0.2-6.3,0.2-9.5,0c-7.7-0.6-15.3-1.4-23-1.9
			c-11.8-0.8-23.7-2.2-35.5-1.8c-10.7,0.3-21.7,0.1-32,3.8c-15.8,5.6-19.9,14.3-20.8,28c-0.7,11.6,0.1,23.4,0.9,35
			c2.4,36.6,16.2,68.7,38.4,97.6c9.3,12.2,20.1,22.9,31.5,33c13.3,11.8,25.2,24.8,30,42.5c2.5,9.4,4,19.1,6.7,28.5
			c4,13.9,11.4,26.1,20,37.5c14.5,19.1,27.1,39.3,38.9,60.2c6.5,11.6,16.1,17.5,29.5,17c12-0.4,24-0.3,36-1.1
			c12.5-0.9,25-3.1,37.5-3.7c10.8-0.5,21.7,0.7,32.5,0.8c10.5,0.1,21-0.1,31.5-0.5c4.5-0.2,9.1-1,13.5-2c12.7-2.8,23.4-9.5,33-18
			c8.1-7.2,15.2-15.4,19.5-25.5c5.4-12.6,4.9-25.5,0.4-38c-7.5-20.9-15.8-41.5-23.9-62.1c-8.7-22.1-20.7-42.6-33.5-62.6
			c-6.8-10.6-14.6-20.4-25.6-26.9c-12.6-7.6-26.3-8-40.5-5.1c-16.4,3.3-30.6,10.6-42.4,22.1c-7.9,7.6-15.3,15.8-22.5,24
			c-5,5.7-10.4,10.5-17.1,13.9c-6.3,3.3-13.7,1.4-16.9-5.1c-2.2-4.6-3.9-9.9-4.5-15c-1-8.6-0.6-17.3-1.2-26
			c-1.1-14.2-5.2-27.5-10.9-40.6c-8-18.3-19.1-35.2-24.4-54.6c-2.7-9.9-3.8-20.3-5.7-30.5c-0.4-2-0.9-4-1-6
			c-0.6-10.8,5.5-15.3,16-14.2c10.6,1,21.3,0.6,32,0.1c7.9-0.4,15.8-1.3,23.5-3c16.7-3.6,31.9-10.5,44.6-22.3
			c10.4-9.6,19.2-20.3,22.8-34.1c6.1-23.1,1.4-48.5-18.9-64.9c-5.4-4.4-12.3-5.1-19-5.5c-4-0.3-8-0.1-12-0.1"/>
		<path class="st0" d="M1785.7,376.8c-16.3,3.4-19,19.8-17,31.5c1.6,9.2,5.7,17.5,11.1,24.9c2.7,3.6,6.5,6.7,10.4,9
			c6.3,3.7,11,2.1,14.4-4.4c3.3-6.2,4.9-12.9,5.7-20c1.2-9.8-0.8-18.8-4.7-27.5c-3.8-8.3-10.9-12.1-19.5-13.5"/>
		<path class="st0" d="M1505.6,853.1c-7.7,1.5-15.1,3.4-22.1,7.4c-11.6,6.5-20.6,15.2-23.7,28.2c-2.6,10.5-1.1,21.3,5,30.4
			c7.8,11.7,16.3,22.9,24.9,34.1c9.2,11.9,15.7,25.2,21.6,39c6.7,15.8,16.1,29.6,33,36c11.8,4.5,23.7,6,34.5-3.4
			c5.5-4.8,8.9-10.8,10.9-17.6c4.3-14.5,6.6-29.3,6.7-44.5c0.1-17.1-0.7-33.9-5.1-50.5c-4.5-17.1-11.9-32.4-27.1-42.4
			c-12.7-8.4-26.7-13.9-42-15.6c-5.3-0.6-10.7-0.7-16-1"/>
		<path class="st0" d="M2151.8,861.1c-4.5,1-9.1,1.8-13.5,3c-13.5,3.7-25.3,10.2-33.5,22c-7.4,10.6-8.6,22.5-4.9,34.5
			c2.7,8.8,6.5,17.2,10.4,25.5c8,17.2,16,34.4,20.5,53.1c2.9,12.2,5.8,24.4,9,36.5c3.7,14.2,12.9,22.4,27.4,25.7
			c10,2.3,20,3.6,30.1,3.7c13,0.2,26.1,0.2,39-1.1c16.8-1.7,33.4-4.4,50-7.5c10.5-2,20.8-5.2,31-8.5c6.3-2.1,11.9-5.8,15.6-11.9
			c7-11.3,2.8-20.1-3.6-28.5c-4.9-6.4-11.7-10.6-18.9-14.1c-10.4-5.2-20.9-10.2-31-16.1c-14.5-8.4-25.1-20.9-34.6-34.4
			c-12.2-17.4-24.1-34.8-36.6-52c-9.2-12.7-20.5-23.4-36-27.9c-6.3-1.8-13.3-1.5-20-2.2"/>
		<path class="st0" d="M1286.5,868.1c-3,0.8-6,1.7-9,2.5c-21,6-31.7,21-35.3,41.6c-1.2,7.1-1.5,15,0.1,21.9
			c3,12.8,11.8,20.1,26.2,20.9c23.8,1.4,43.5-7.2,57.6-27.3c9.5-13.7,8.8-34.7,1.5-44.6c-7-9.7-16.1-14.9-28.1-15
			c-4.2,0-8.3,0-12.5,0"/>
		<path class="st0" d="M1322,372.3c-13.1,4.5-23.7,12.1-29.4,25.1c-3,6.9-3.1,13.8,5.5,16.2c3,0.9,7.2-0.9,10.4-2.3
			c11-5.1,18.4-13.5,21.5-25.4c2.1-7.9,0.2-11.2-7.5-13.5"/>
		<path class="st0" d="M1507.6,879.1c-4.2,1.8-8.9,2.9-12.4,5.6c-10.7,8.3-11.7,18.5-5.9,30.3c4,8.2,10.4,15.2,15.8,22.6
			c7.6,10.5,15.3,21.1,23,31.5c3.9,5.3,7.8,10.6,12,15.5c9.9,11.4,20.5,9.2,28.5-1.9c4.4-6.1,6.3-13,7.3-20.1
			c1-7.1,1.3-14.3,1.1-21.5c-1-23.8-9.4-43.7-31.5-55.5c-7.2-3.9-15.1-6.3-23.5-6.6c-4.7-0.1-9.3,0-14,0"/>
		<path class="st0" d="M342.1,369.8c-7.7,1.3-15.4,2.4-23,4.1c-26.8,5.8-50.7,16.6-67.5,39.5c-7,9.5-11.7,20.4-15.5,31.5
			c-7,20.1-13.2,40.5-17.1,61.5c-1.9,10.2-2.8,20.6-0.2,30.5c2.3,8.8,8.7,15.5,17.2,19.6c12.2,5.9,24.4,11.9,36.5,18
			c21,10.5,39.8,24.5,58.5,38.5c10.5,7.8,19.3,17.5,24.7,29.1c4.5,9.6,7,20.1,9.7,30.4c3.2,12.2,5.9,24.2,15.4,33.7
			c7.8,7.7,17.2,11.6,27.2,12.6c22.8,2.3,41.6,11.7,58.6,26.6c12.8,11.3,28.3,17.5,45.9,16.7c15.7-0.7,28.9-6.6,39-19
			c9.4-11.4,14.6-25,21.1-38c6.1-12.2,12.1-24.6,19.6-36c13.4-20.6,27.5-40.7,42-60.6c6.7-9.2,14.9-17.4,22.4-26.1
			c5.3-6.3,7.3-14.1,7.9-22c0.5-6.8-1.6-13.4-7.9-16.9c-6-3.3-12.4-1-17.9,2c-5,2.7-9.5,6.5-14.1,9.9c-15,11.1-31.7,18.9-49.1,25.4
			c-13.7,5.2-27.5,10.2-41.5,14.4c-14.6,4.4-29.5,4.4-41.8-6c-7-5.9-13.4-12.9-18.5-20.5c-14-20.8-28.4-41.4-44.2-61
			c-8.5-10.5-14-22-14.2-36c-0.2-14.1,1.3-28,2-42c0.9-16.9,0-33.9-13.9-46.5c-8.1-7.4-18.2-11.4-29-12.4c-10.6-1-21.3-0.8-32-1.1"
			/>
		<path class="st0" d="M664.3,890.1c-3.5,0.7-7.1,1.1-10.5,2c-17.7,4.9-31.9,14.4-36.9,33c-4.8,18-4.2,35.3,11.3,49
			c6.7,5.9,13.4,12,19.4,18.6c6.2,6.7,9.9,15,10.9,23.9c0.8,6.8-1.6,13.2-6.8,18c-5.9,5.3-12.5,4.1-19,1.5
			c-7.8-3.1-13.5-8.9-18.5-15.5c-5.7-7.4-10.6-15.4-18.4-21.1c-8.6-6.3-18-6.9-28.1-6c-18.3,1.7-35.1,9.2-52.5,14
			c-10,2.7-20.3,4.5-30.5,6.6c-5.4,1.1-9.4,4.1-12.5,8.5c-2.7,3.9-1.9,9.6,1.5,13c4.3,4.4,9.9,6.4,15.5,7.3
			c13.2,2.3,25.8,6.6,37.9,11.8c15.8,6.7,31.2,14.3,46.6,21.9c21.7,10.7,32.5,28.9,35,52.5c2.6,25.1-7.1,46.2-22,65.5
			c-10.8,14.1-25.3,23.7-40,33c-17.4,11-35.4,21.1-49.6,36.4c-7.6,8.3-12.6,17.6-14.4,28.6c-1.4,8.8,5.8,20.2,15.5,24.5
			c26.4,11.7,61.5,2.8,78-20.1c6.6-9.1,12.7-18.4,18.5-28c12-19.9,30.3-30.3,52.1-36c10.9-2.9,21.7-6,32.5-9
			c19.4-5.3,32.6-18.2,42.9-34.6c7.6-12,11.7-25.5,15.7-39c2-6.8,4.6-13.5,7.5-20c2.4-5.3,7.2-8.4,12.4-10.5c4.2-1.7,8.7-0.3,10.4,4
			c1.8,4.8,3.4,9.9,3.5,15c0.1,13.1,0,26.2-3.3,39c-2.6,10.2-9.1,17.8-16.9,24.6c-8.3,7.2-16.3,14.7-24,22.5
			c-6.9,7-10.3,16.1-11.3,25.5c-1.1,10.1-1.3,20.5,0,30.5c1.8,13.6,12.2,23.8,28.3,24.1c17.6,0.4,34-3.2,48.5-13.6
			c11.1-8,19-18.3,22.1-32c1.3-5.8,3.9-11.3,5.3-17c3.3-13.5,14.1-18.1,25.6-21.4c15.2-4.4,30.7-7.9,46-12.2
			c19.7-5.5,32.2-18.7,39.6-37.5c5.3-13.6,7.9-27.7,6.3-42c-2.7-23.8-13.9-39.1-39.4-46.4c-13.6-3.9-27.5-3.5-41.5-1.2
			c-15.6,2.6-31.3,4.8-47,7c-3.1,0.5-6.3,0.7-9.5,1c-9,1-14.4-2.6-16.5-11.5c-2.8-12.3-5.5-24.7-8-37c-3.5-17.1-11.2-32.5-19.7-47.4
			c-9.6-16.9-17.1-34.4-22.5-53.1c-4.1-14.1-9.8-27.8-21.8-37.6c-8.5-7-18.1-11.3-29-12.4c-6-0.6-12-0.7-18-1.1"/>
		<path class="st0" d="M2152.8,890.1c-3,1.2-6.1,2.1-9,3.5c-11,5.5-16.3,16.7-12.9,28.5c3.1,11,6.9,21.7,10.4,32.5
			c3.6,10.9,7,21.8,11.1,32.5c3.6,9.4,7.6,18.8,12.6,27.5c6.8,12,18.4,18.2,31.4,21.6c16.8,4.3,33.8,4.9,51,3.2
			c9.6-0.9,19.2-1.4,28.5-4.3c5-1.5,9.9-3.5,14.5-6c5.8-3.2,7-10.8,2.5-15.8c-3.6-4-8-7.5-12.5-10.5c-9.3-6.2-19-12-26.4-20.7
			c-6.8-8-13.7-16.2-19.4-25c-9.8-15.2-19.5-30.6-31.8-43.8c-10-10.7-22.1-19.2-36.9-22.6c-4-0.9-8.3-0.4-12.5-0.6"/>
		<path class="st0" d="M1285.5,895.1c-8.4,2-13.6,6.9-16.2,15.5c-2.4,8.2,6.5,18.5,16.2,16.1c8.2-2,14.3-5.9,16.5-14.6
			c2.3-9.4-3.3-16.9-13-17c-1,0-2,0-3,0"/>
		<path class="st0" d="M670.3,924.1c-9.3,3.8-10.9,12.2-4,19c4.2,4.2,8,8.7,14,10.5c5.5,1.6,10.7-2.3,11.6-8
			c1.6-10.3-8.4-24-21.1-21.5"/>
		<path class="st0" d="M2188.3,953.7c-4.9,2.7-6.7,6.6-5,12c2.1,7.1,3.9,14.4,11.5,18c5.2,2.5,10.8-0.7,11-6.5
			c0.3-8.1-8.3-20.9-16-23.5c-0.3-0.1-0.7,0-1,0"/>
		<path class="st0" d="M867.3,363.8c-3.5,1.2-7.1,2-10.5,3.6c-6.6,3.1-8.9,8.6-7,15.9c2.6,9.7,7.5,17.4,16.9,22.2
			c7.1,3.7,13.5,2.4,18.4-2.3c11-10.4,10.8-27.3-3.4-34.8c-4.3-2.2-9.3-3.1-13.9-4.6"/>
		<path class="st0" d="M895.3,968.2c-6.3,1-10.6,4.1-12.6,10.5c-1.9,6.4,1.6,16.5,8.1,22c10.1,8.7,22.1,11.3,35,10.4
			c2.9-0.2,5.9-1.9,8.5-3.4c3.4-2.1,4.6-6.5,3-9.9c-7.3-15.7-20.5-23.9-36.5-28.5c-1.6-0.5-3.3-0.7-5-1"/>
		<path class="st0" d="M1139.4,987.2c-3.5,0.7-7.1,1.1-10.5,2c-15.9,4.3-22.6,12.4-24.9,28.5c-3.3,23.1-0.8,45.7,7.9,67.5
			c6.2,15.7,14.9,29.9,26,42.5c12.9,14.6,28.4,25.7,46.5,33.1c8.4,3.4,16.7,6.9,26,4.4c2.1-0.6,4.3-1.6,6-3
			c10.4-8.4,15.5-19.8,18.6-32.5c4.1-17.1,1.7-33.7-5.2-49.5c-5.6-12.8-12.2-25.1-18.4-37.6c-5.5-11-10.3-22.5-16.7-32.9
			c-8.5-13.8-22.3-19.5-37.8-21.6c-5.6-0.7-11.3-0.7-17-1.1"/>
		<path class="st0" d="M1145.4,1007.2c-6.1,1.6-11.9,3.4-16.6,8.4c-5.3,5.7-7.7,12.3-8.9,19.6c-3.3,19.8,1.3,38.4,9.7,56
			c7.8,16.4,19.3,29.9,35.4,39.1c9.1,5.2,19.1,7.4,29.5,5.9c10.6-1.5,16.7-8.9,20.5-18.4c4.1-10.2,3.6-20.9,0.4-31
			c-6.8-21.2-17.2-40.8-29.8-59.1c-7.3-10.6-17-17.4-29.6-19.9c-3.2-0.6-6.7-0.4-10-0.6"/>
		<path class="st0" d="M718.3,1017.2c-12.7,5-8.1,26.9,2,32.5c6.1,3.4,15.1-2.4,15.6-9.5c0.5-8-3.1-14-8.1-19.5
			c-2.3-2.5-5.2-4.2-9-3.5"/>
		<path class="st0" d="M245.1,1030.2c-18.6,3.3-29,17.3-40,30.6c-9,10.9-16.8,22.9-26.7,32.8c-19.2,19.2-40.8,34.8-68.8,38.8
			c-12.8,1.8-25.5,3.8-37.5,8.9c-14.3,6-26.8,20.8-26.6,38.6c0.1,11.3,3.4,21.6,8.2,31.5c5.8,11.8,12.3,23.4,18.4,35.1
			c9.7,18.7,19,37.6,29.2,55.9c5.1,9.1,12.3,16.6,22.3,21.2c11.3,5.1,21.9,3.6,32.5-1.6c8.7-4.3,17.6-8.3,26-13.1
			c11.5-6.5,24-10,36.5-13.5c10.6-3,21.8-4.6,31.1-11.4c8.1-5.9,12.8-13.2,14.2-23.5c1.9-13.6-0.9-26.3-4.3-39
			c-3.2-11.9-7.4-23.6-10.3-35.6c-4.5-18.6,2.4-34.6,19.8-43.1c9.2-4.5,18.1-9.7,26.5-15.5c8.8-6.2,13-15.1,13.3-26.4
			c0.4-15.4-6.1-28-14.9-39.4c-6.8-8.7-15.4-16.3-23.9-23.6c-6.8-5.8-15.3-8.1-24.4-7.6"/>
		<path class="st0" d="M2006.8,359.7c-2.7,0.5-5.5,0.6-8,1.6c-3.2,1.4-6.4,3.2-9,5.5c-5.3,4.8-4.6,10.7,2,13.3
			c8.3,3.3,20.7,2.1,26.5-6.4c3.7-5.4,1.8-11.2-4.5-13c-2.1-0.6-4.3-0.7-6.5-1"/>
		<path class="st0" d="M1151.4,1035.2c-6.6,2.6-10.4,7.7-11.4,14.5c-2.8,17.8,2.9,33.2,14.5,46.5c2.8,3.2,5.9,6.3,9.5,8.4
			c10.1,6,23.6,6.4,28.2-6c1.7-4.6,1.7-10.5,0.5-15.4c-3.8-16.1-11.4-30.4-23.3-42.1c-4.9-4.8-10.8-6.6-17.5-6"/>
		<path class="st0" d="M523.2,354.7c-9.5,1.9-13.8,9-17,17c-7.9,20.2-12.9,41.4-17.4,62.6c-2.9,13.8-1.9,27.8,3.8,41
			c5.8,13.3,14.2,24.3,28,30c11.5,4.7,22.7,2.9,33.5-2.9c21.3-11.4,32.2-30.2,36.4-53.1c3.9-21.6-1.8-41.4-13.9-59.5
			c-8.7-12.9-19.6-23.4-33.5-30.4c-6-3-12.4-5.7-19.5-4.6"/>
		<path class="st0" d="M1779.7,345.7c-11,2.7-20.3,8.1-25.4,18.6c-3.2,6.6-5.6,13.8-7,21c-3.8,19.7,0.8,38.5,7.4,57
			c6.3,17.9,14.7,35,22.8,52.1c6.6,13.9,11.5,28.7,10.6,44.5c-0.7,12.4-3.8,23.8-13.3,33.2c-9.1,9.1-19.6,15.4-31.2,20.4
			c-24.3,10.5-48.1,21.8-68.5,39c-19.4,16.4-36.4,35.1-51.1,56c-10.3,14.6-22.5,27.4-35.8,39.2c-12.3,10.9-24.7,21.8-33.7,35.8
			c-4.9,7.7-8.7,15.8-10.3,24.6c-1.4,7.5,1.7,14.4,5.9,20.5c6.1,8.8,15.1,14.3,23.5,20.5c10.3,7.7,19.9,16.2,26.9,27.1
			c8.1,12.5,12.7,26.5,15.4,41c3,16.1,5.3,32.3,7,48.5c2.1,20,4.5,39.9,9.2,59.5c2.1,8.8,5.3,17.4,7.9,26c4,13.5,8.1,27,12,40.5
			c2.5,8.8,7.3,16.5,19.5,15.4c12.5-1.1,25.1-2.3,37.5-4c13.2-1.9,26.6-3.8,39.5-7.1c12.6-3.3,25-7.9,37-12.9
			c15.8-6.6,31.2-13.8,45.6-23.3c12.6-8.3,22-19.2,27.2-33.2c2.7-7.1,4-14.9,4.6-22.5c1.5-19-1.9-37.6-6.3-56
			c-3-12.3-4.9-24.8-4.5-37.5c0.4-9.5,1.4-19,1.9-28.5c0.8-13.7-3.3-26.4-8-39c-5.2-14.2-10.8-28.2-15.3-42.6
			c-2-6.1-2-12.9-2.7-19.5c-1.1-11.5-2-23-3-34.5c-0.7-7.7-1.2-15.4-2-23c-0.8-7.2-2-14.3-2.9-21.5c-0.5-4.1-0.8-8.3-1-12.5
			c-0.4-9.7-1.3-19.4-0.9-29c0.6-11.4,1.4-23,6.8-33.5c5.3-10.4,13.5-17.7,23.5-23.6c9.9-5.8,20.5-9.4,31.6-11.3
			c15.5-2.6,31-0.7,45.5,5.5c18.9,8.1,32.6,22.3,44.1,38.9c9.7,14,19.6,27.8,28.9,42.1c13.6,20.8,32.2,35.3,55.6,42.8
			c13.7,4.4,28,7.2,42,10.7c19.3,4.8,35,15.1,47.6,30.5c9.8,12,16,26,23,39.6c5,9.8,10.6,19.4,14.8,29.6c4.1,9.8,2.4,13.9-8.9,18.8
			c-9.9,4.3-20.3,7.4-30.5,11.1c-20.2,7.4-39.1,17-54,33c-10.1,10.8-16.8,23.3-15.9,38.5c0.4,6.7,2.1,13.5,3.9,20
			c3.7,13.1,8.4,25.9,11.7,39.1c1.6,6.2,1.7,13.1,0.9,19.4c-0.6,5.2-5.1,8.6-10.3,10c-2.9,0.8-6,1.4-9,1.5c-11.4,0.2-22.8-0.2-34,3
			c-15.3,4.4-28.3,11.9-37.5,25.1c-8,11.5-14.5,23.7-17.5,37.5c-2.6,11.8-1.2,22.9,3.8,34.1c5.2,11.9,13.6,21.3,21.8,30.9
			c11.2,13,17.5,28,21,44.6c1.5,7,3.8,13.9,6.6,20.5c1.2,2.8,4.5,4.8,6.8,7.1c2.3-2.3,5.3-4.3,6.9-7.1c3.7-6.6,6.3-13.9,10.2-20.4
			c8.5-13.9,21.2-22.4,36.4-27.6c13.2-4.5,26.9-7.9,39-15.1c6.1-3.7,12.1-7.8,17.5-12.5c7-6.1,13.2-13.1,20.1-19.4
			c9.8-8.8,22.1-11.9,34.5-14.5c24.8-5.1,49.6-9.9,74.5-14.5c13-2.4,26.1-4.1,39-6.7c9.9-2,20-4.1,29.5-7.6
			c14.7-5.3,16.3-17.7,14.9-28.8c-1.9-14.9-7.9-28.2-19.9-38c-8.7-7.1-19-11.6-29.5-15.6c-14.5-5.5-28.9-11.5-40.4-22.1
			c-6.9-6.4-13.3-13.6-18.5-21.5c-12.5-19-24.4-38.5-36.1-58c-5.8-9.7-11.2-19.7-16-30c-7.5-16.4-7.8-22,11.4-29.4
			c12.7-4.9,25.4-9.9,38.6-13.3c10.5-2.8,21.6-3.4,32.4-4.7c17.3-2.2,35-1.3,52-6.1c8.9-2.5,17.6-5.3,24-12.5
			c5.1-5.7,7.8-12.3,8.1-20c0.4-12.5-2.7-24.4-4.6-36.5c-1.6-10.3-3.2-20.7-4.5-31c-1.5-12.8-2.8-25.7-4-38.5c-0.6-6-0.5-12-1.1-18
			c-1.2-11.7-3.2-23.2-8.3-34.1c-4.9-10.5-20.1-14.5-28.2-13c-19.1,3.6-32.2,15.7-44.6,29.5c-7.5,8.4-15.6,16.4-24,24
			c-5.9,5.3-13.7,5.2-20.9,3.4c-6.4-1.5-12.8-3.7-18.5-7c-15-8.8-31.3-14.3-47.6-19.9c-6.6-2.3-13-5.2-19.5-8
			c-15.4-6.5-24.4-19-29.9-34.1c-5.8-15.8-8.5-32.3-10.7-49c-1.8-13.8-3.1-27.6-7.3-41.1c-5.5-17.7-18.1-26-35.1-29.5
			c-14.4-3-28.9-3.1-43.5-3c-19.8,0.1-39.3-2.7-58.5-7.4c-14.3-3.5-28.8-6.1-43.5-4.4c-9.8,1.1-19.3,4.3-29,6.3
			c-5.3,1.1-10.6,2.3-16,2.4c-12.9,0.4-22.1-5.9-25.9-18.4c-3.1-10.1-5-20.6-7.1-31c-2.5-12.8-4.7-25.7-12.6-36.5
			c-8.9-12.2-21.5-18-36.4-19c-2.7-0.2-5.3,0-8,0"/>
		<path class="st0" d="M247.1,1061.2c-15.9,4-23.9,16-29.5,30c-2.7,6.8-5.1,13.6-7.5,20.5c-2.4,7-7.1,11.4-14,14.1
			c-17.8,7-35.3,14.6-53.1,21.3c-11.2,4.3-23.1,5.8-35,7.2c-8.1,1-16.4,2.2-23.9,5.1c-17.8,6.9-21.9,19.6-19,35.3
			c3,16.1,11.5,30.2,19,44.5c8.2,15.7,15.7,31.8,26.5,46c4.5,5.9,9.8,11.1,16.5,14.5c7.5,3.8,15.5,3.9,22.9,0.9
			c21.9-8.7,43.5-18.5,63.5-31.1c14.2-9,21.5-22.3,21.3-39.8c-0.1-14.9-4.3-28.8-7.7-43c-2.2-9.2-4.7-18.3-6.4-27.5
			c-1-5.5-1.2-11.3-1-17c0.4-9.8,7.1-14.2,15.4-17c9.5-3.2,19-6.3,28.5-9.5c6.5-2.2,11.4-6.6,15.5-12c5.6-7.2,4.8-15.3,1.2-22.4
			c-4.8-9.5-12.2-17.1-23.3-19.6c-3.1-0.7-6.3-0.4-9.5-0.6"/>
		<path class="st0" d="M1894.7,1063.2c-16.2,3-30,11.6-44.5,18.5c-27.1,12.9-54.1,25.8-81,39.1c-10.4,5.1-20.2,11.2-29.1,18.8
			c-12.3,10.6-11.6,27.1-0.5,38.7c14,14.7,31.2,23.1,50.6,28c14.8,3.7,29.9,4.8,45,3.8c14.2-0.9,28.4-3.1,42.5-4.9
			c17.8-2.3,27.5-13.3,31.5-30c3.6-15,6.7-30,7.1-45.5c0.2-7.5,1.2-15,0.8-22.5c-0.6-10.3-1.1-20.7-4.9-30.5
			c-3-7.7-7.7-13.5-17-13.5"/>
		<path class="st0" d="M1491.6,1081.3c-17.5,4-18.8,18.5-17,31.5c2,14.1,8,26.8,13.9,39.6c7.3,16,13.7,32.3,20.6,48.5
			c7.4,17.4,17,33.4,29.6,47.4c6.8,7.5,14,14.9,22.1,20.9c10.7,7.9,20.1,9.7,30.7,0.5c4.3-3.7,7.6-9.1,10-14.4
			c7.7-16.2,12-33.5,15.5-51c1.5-7.8,0.9-16.1,2.3-24c1.8-10,0-19.5-2.1-29c-2.6-11.7-8.9-20.9-19.1-26.9
			c-16.8-9.9-33.8-19.4-51-28.5c-13.2-7-27.4-11.6-42-14.5c-4.2-0.8-8.6-0.1-13-0.1"/>
		<path class="st0" d="M145.1,330.7c-8.4,3.7-10.6,8-9.3,19.5c1.3,11.6,7.8,20.1,19.4,22.8c4.8,1.1,10.7,0.7,15.3-1
			c5.5-2.1,7.1-10.8,3.5-16.7c-5.3-8.6-11.4-16.9-20.5-22c-2.4-1.3-5.3-1.7-8-2.6"/>
		<path class="st0" d="M401.7,1089.8c-7.4,1.5-11,6.9-12.4,13.5c-2.3,10.9-3.9,22-5.6,33c-2.6,16.7-4.9,33.4-7.6,50
			c-1.6,10.4-4.2,20.6-5.3,31c-1.4,12.9,8.9,27.1,21.3,32.1c16.9,6.7,30.7,0.4,43.5-9.7c12.3-9.7,25.2-17.6,40.5-22.1
			c17.8-5.3,35.2-11.8,50.6-22.7c12.3-8.8,23.4-18.5,30.1-32.5c5.9-12.3,6.1-24-2.6-35c-5.4-6.9-12.7-10.6-21-12.5
			c-6.6-1.5-13.3-3.2-20-3.4c-8.5-0.2-17.1,0.7-25.5,1.9c-15.4,2.3-30,1-44-6.1c-10.4-5.3-20.9-10.5-31.5-15.4
			c-3-1.4-6.6-1.4-10-2.1"/>
		<path class="st0" d="M873.3,1095.3c-5.8,1-11.8,1.6-17.5,3.1c-15.4,3.8-28.9,10.9-37.5,25c-3.6,5.9-5.5,12.6-5.5,19.5
			c0,8-0.5,16,1.8,24.1c4.2,15,18.4,27.7,33.7,29.5c12.9,1.5,25.5,1.7,38-2.5c21.3-7,31.8-22.3,35.6-43.6
			c2.1-11.8,0.9-23.2-4.8-33.4c-7-12.5-18.3-19.5-32.8-20.6c-3.5-0.3-7-0.7-10.5-1"/>
		<path class="st0" d="M2022.8,327.7c-7.5,1.7-15.1,3-22.5,5.1c-15.1,4.3-30.1,9.1-43,18.5c-6.5,4.7-12.1,9.9-14.2,18.4
			c-1.6,6.7,0.2,11.9,4.2,16.5c8.8,10,20.3,15.5,33,18.5c6.7,1.6,13.7,3.3,20.5,2.9c20-1.2,39.3-5,53-21.8c4.4-5.5,7.5-11.7,7.5-19
			c0-5.5,0.4-11.1-0.6-16.5c-2.4-13.2-14.2-23.8-28.9-22.6c-2.8,0.2-5.7,0-8.5,0"/>
		<path class="st0" d="M1870.7,1099.3c-5.5,1.2-11.2,1.9-16.5,3.6c-8.5,2.8-17,5.6-25,9.5c-14.6,7.1-28.9,14.6-43,22.5
			c-6.6,3.7-12.5,8.4-17.2,14.8c-6.1,8.4-4.4,18.1,1.1,24.1c9.7,10.6,21.9,15.2,36,16.7c17.2,1.8,33.2-1.1,48.5-8.6
			c14.7-7.2,24-19,29.5-34.1c3.4-9.4,5.3-19,5-29c-0.2-6.3-1.8-12.2-7.1-15.8c-3.1-2.1-7.2-2.5-10.9-3.7"/>
		<path class="st0" d="M872.3,1113.3c-5.2,1.7-10.4,3.2-15.5,5c-5.6,2-9.6,6.3-13,11c-8.5,11.5-6.8,28.1,2.9,38.6
			c9.4,10.2,20.9,11.1,33.1,8.3c14.4-3.3,22.8-13.5,24.8-27.5c2.3-16-2.6-27.7-19.3-33.9c-3.8-1.4-8.3-1.1-12.5-1.6"/>
		<path class="st0" d="M2041.8,299.7c-24.8,7.5-49.8,14.7-74.5,22.6c-19.2,6.1-36.6,15.4-50.5,30.5c-3,3.2-5.7,6.8-8,10.5
			c-6.9,11.1-5.2,25.3,8.5,32.9c9.9,5.5,20,10.9,30.5,14.9c11.5,4.3,23.5,7.5,35.5,10.1c12.8,2.7,25.9,2.1,39,0.8
			c11.8-1.2,23.2-3.7,34-8.2c18.1-7.6,27.9-21,29.2-41.4c1.1-17.1-1-33.4-6.1-49.6c-2.8-8.8-8.6-15.1-15.7-20.4
			c-2.3-1.7-5.9-2.2-8.9-2.5c-4.1-0.4-8.3-0.1-12.5-0.1"/>
		<path class="st0" d="M657.2,1115.3c-7.3,2.4-10.2,8.7-11.3,15c-2.2,13-4.2,26.1-4.5,39.5c-0.2,9.1,7.3,14,15.1,8.8
			c13.5-8.9,22.3-21.3,22.1-38.3c-0.1-9.2-3.7-17-11.1-22.4c-2.6-1.9-6.6-1.8-9.9-2.7"/>
		<path class="st0" d="M1367.5,1125.3c-9.5,2.2-18.6,5.4-26.5,11.5c-10.9,8.4-18.9,19.1-25.6,31c-8.2,14.5-16.2,29.2-26.9,42.1
			c-7.6,9.2-17.7,14.7-28.5,19c-2.1,0.8-4.3,1.6-6,3c-7,6-8.7,10-2.3,20.8c6.6,11.2,16,20,27.8,26.2c7.6,4,15.8,5.6,24.1,6.3
			c22.9,2,44.6,7.4,64.6,19.5c10.5,6.3,21.7,11.7,33.9,14.1c15.5,3,30.6,2.5,44-7c10-7.1,18.4-15.7,20.5-28.5
			c1.3-8.1,1.1-16.3-0.9-24.5c-8.7-37.1-22.6-72-44.3-103.4c-5.7-8.2-13.3-15.4-20.9-22c-9.2-7.8-20.7-8.8-32.4-8.2"/>
		<path class="st0" d="M1529.6,1127.3c-9,3.2-10.5,5.3-8.4,15.5c3.1,14.8,6.4,29.5,10.6,44c2,6.9,6.1,13.3,9.9,19.5
			c2.2,3.5,5.5,6.6,8.9,9c9.6,6.7,17,5.9,24.2-3.6c9.7-12.6,13.7-27.4,10.1-43.3c-1.9-8.4-5.9-16-12.9-21.5
			c-12.5-9.8-26.2-16.9-42-19.5"/>
		<path class="st0" d="M2281.9,1131.3c-6.8,2.2-13.9,3.9-20.5,6.6c-13.9,5.7-24.8,15.1-33.6,27.4c-11.2,15.7-19.4,33-26.7,50.7
			c-2.3,5.6-4.9,12.2-1.4,18.9c2.7,5.1,6.5,7.3,12.1,7.5c7.2,0.3,13.8-1.4,20-4.6c11.9-6.1,23.6-12.4,35.5-18.4
			c9.2-4.7,18.8-8.8,28-13.6c18.4-9.8,24.9-26.2,23.9-46c-0.6-12-5.5-22.4-17.5-26.7c-5.9-2.1-12.9-1.3-19.4-1.8"/>
		<path class="st0" d="M1372.5,1145.3c-3.2,0.7-6.4,1-9.5,2.1c-17.3,6-26.8,19.5-33.5,35.5c-3.3,7.9-6.6,15.8-7.7,24.5
			c-3.2,25.8,0.2,32,18.8,45.8c11.1,8.2,24.2,13.8,36.3,20.8c8.9,5.1,18,9.5,28,12c15.5,3.8,28.9-2,34.9-15.6c1.3-2.9,1.8-6.3,2-9.5
			c0.8-11.7-0.7-23.2-3.9-34.5c-5.8-20.9-13.7-40.8-27.2-57.9c-6.3-8-13.1-16.2-23.4-19.5c-4.7-1.5-9.6-2.4-14.5-3.6"/>
		<path class="st0" d="M2274.9,1162.3c-6.3,1-10.3,5.6-13.8,10.2c-1.5,1.9-1.7,5.8-1,8.3c1,3.6,4.3,5,8.3,4.6
			c7.7-0.8,12.6-5.9,16.4-11.6c3.7-5.6-1.3-11.4-9.4-11.4"/>
		<path class="st0" d="M166.1,1165.3c-14.8,3.7-29.7,7.1-44.5,11.1c-8.2,2.2-16.8,3.7-23.6,9.8c-6.9,6.1-7.6,13.6-5.8,21.6
			c4.5,20.9,14.9,39,28,55.5c6.4,8.1,15.6,12.8,25.9,11.8c7.8-0.7,15.5-3.6,23-6.3c12.8-4.6,24.3-11.5,33.6-21.9
			c6.5-7.2,9.5-15.6,9.9-25.1c0.7-14.7-3.6-28.1-11-40.5c-6.7-11.2-16.4-17.4-30-16.1c-1.7,0.2-3.3,0-5,0"/>
		<path class="st0" d="M1370.5,1173.3c-11.9,3.3-19.7,16.1-19.6,27.5c0.2,17.2,9.8,30.1,27.6,36.5c6.3,2.3,12.7,4.2,19.5,2.5
			c6.5-1.6,10.5-6.8,11-13.5c1.2-15.9-3.7-29.9-13.7-41.9c-6.1-7.3-13.9-12.6-24.4-11.1"/>
		<path class="st0" d="M1007.4,1178.3c-13.6,3.6-18.1,14.2-20.5,26.5c-2,10.5,0.3,20.2,6.6,28.4c12,15.4,28.8,11.3,37.8-2.5
			c3.9-6,6.4-13,6.3-20c-0.1-9-2.4-18.2-8.9-24.9c-5.4-5.5-12.6-8.6-20.8-7.7"/>
		<path class="st0" d="M160.1,1197.3c-8.5,1.9-16.3,4.9-22.1,12c-5,6.1-5,16.9,0.5,22.6c11.4,11.7,26.1,11.1,38.5-1.5
			c8.1-8.2,7.8-21.9-1-29c-4.4-3.6-9.9-4.3-15.5-4.1"/>
		<path class="st0" d="M2172.3,296.2c-14.7,2.2-20.7,12.4-23.9,26.5c-3.4,14.6,1.7,28,8.5,40.4c8.8,16,22.2,26.6,39.9,31.6
			c14.5,4.1,25.7-3.2,29.5-18c3.1-12.2,1-23.7-3.6-35c-5.8-14.4-14.5-26.7-27.1-35.9c-6.8-5-14.1-9.2-22.9-9.6"/>
		<path class="st0" d="M2167.8,260.7c-26.2,6.8-37.9,26.3-43.3,50.6c-3.1,13.8-1,27.8,1.9,41.5c3.8,18.1,10.2,35,21.4,50.1
			c7.4,10,17.2,16.6,28.2,21.2c13.4,5.6,27.6,9.9,42.4,8.6c21.9-2,35.7-12.2,38-35.9c3.2-33.1-7.4-62-28-87.5
			c-11.2-13.8-23.6-26.5-37.5-37.6c-6.7-5.4-14-9.5-22.5-11"/>
		<path class="st0" d="M2394.9,1233.4c-3.5,1-7,1.9-10.5,3c-8.5,2.6-17.2,11.9-17.1,23.5c0.1,12.6,1.1,24.7,8.6,35.6
			c6,8.8,14.1,12.8,24.6,13c15.3,0.3,30.1-2.6,44.5-7.5c17.1-5.9,23.3-20.2,14.5-35.6c-10-17.6-24.7-28.6-44.6-31.8
			c-6.3-1-13-0.2-19.5-0.2"/>
		<path class="st0" d="M1385.5,250.7c-3,0.8-6.1,1.4-9,2.5c-11.9,4.7-15.8,15.1-17.4,26.5c-0.9,6.2-0.3,12.5,2.3,18.5
			c4.5,10.5,13.6,16,24.6,13.4c14.5-3.4,25.3-11.4,30.5-25.9c3.2-8.9-0.3-20.6-8-26.6c-6.7-5.2-14.3-7.4-22.5-8.5"/>
		<path class="st0" d="M551.2,1259.4c-10.2,1-17.1,7.3-23.5,14.5c-2.9,3.3-4.1,7.6-2.8,11.4c1.5,4.3,5.8,6.9,10.3,6.9
			c4.8,0,9.6-1.5,13.5-4.8c6.2-5.3,11.6-11,11-20c-0.3-5.2-2.5-7.6-8-8"/>
		<path class="st0" d="M2009.8,249.7c-13.3,2.6-24.8,8.8-35,17.5c-2.5,2.1-5,4.4-6.9,7c-2.3,3.1-0.5,7.7,3.4,8.3
			c4.4,0.7,9.2,1,13.4,0c8.7-2.2,17.3-4.9,25.5-8.6c4.4-2,8.4-6,11.5-9.9c3.8-4.8,1.8-10.5-3.9-12.8c-2.3-0.9-5-1.1-7.5-1.6"/>
		<path class="st0" d="M2301.9,1271.4c-11.2,2.5-18.2,9.5-22.6,20c-5.8,13.9-0.8,29,14.6,34.6c8,2.9,15.6,3.3,23-1.5
			c6.4-4.1,8.6-10.7,9.3-17.5c1-9.5-1.4-18.5-6.8-26.5c-4.1-6.1-9.8-9-17-9"/>
		<path class="st0" d="M401.2,247.7c-6.5,1.7-13.2,2.8-19.4,5.2c-5.3,2-10.5,4.9-14.9,8.5c-5,4-4,9,2.4,10.7
			c6.6,1.7,13.7,2.8,20.4,2.5c9.2-0.5,18.3-2.3,26.6-7.1c3.6-2.1,6.1-4.9,6.1-8.2s-2.3-6.3-6.1-8.2c-4.8-2.4-9.6-2.7-14.6-3.3"/>
		<path class="st0" d="M1722.7,1319.4c-12.5,3.7-21.3,11.2-24,24.5c-1.8,8.6,0.8,16.3,5.1,23.5c2.6,4.3,8.9,4.5,12.9,1.1
			c5.5-4.7,8.5-11,11-17.5c2.1-5.7,4-11.6,5.5-17.5c1.7-6.6-2.2-11.7-9.9-14"/>
		<path class="st0" d="M668.3,239.7c-12.8,3.5-11.7,15.9-5.8,24.4c11.5,16.7,27.8,27.3,47.9,30.4c10.4,1.6,20.9,0.3,28.6-9.2
			c4.7-5.8,5.2-11.9,0.4-17.6c-4.8-5.8-11-9.9-17.6-12.8c-10.9-4.7-22.3-8.4-33.4-12.7c-6.4-2.5-12.9-2.6-19.5-2.5"/>
		<path class="st0" d="M1369.5,224.7c-5.7,1.8-11.8,2.8-16.9,5.7c-9.8,5.4-14.6,15-17.5,25.4c-3.1,11-6,22.2-8,33.5
			c-3.6,20.3-12.2,37.8-26.6,52.5c-12,12.4-24,24.7-35.4,37.6c-6.7,7.6-10.5,17.3-10.8,27.4c-0.2,6.6,1.6,13.6,3.9,19.9
			c4.5,12.1,12.3,21.9,24.3,27.6c9,4.2,18.2,4.3,27-0.1c19.2-9.5,36-22.4,51-37.5c8.2-8.3,13-19,16.5-30
			c6.1-19.1,17.8-33.7,32.9-46.7c17.2-14.9,29.8-33.7,33-56.8c2.3-16-3-29.8-16.3-40c-11.5-8.9-24.6-14.3-38.6-17.3
			c-5.8-1.3-12-0.8-18-1.2"/>
		<path class="st0" d="M415.2,218.7c-8.5,1.7-17,3.3-25.5,5c-24,5-47.5,11.5-69.5,22.5c-9.7,4.9-19.4,9.9-29,15.1
			c-3.6,1.9-7.3,4.1-9.9,7c-7.5,8.3-5.8,18.7,3.9,25.9c8,5.9,17.1,9.7,27,10.4c10.1,0.8,20.4,1.4,30.5,0.9c12.5-0.6,25-2.6,37.5-3.8
			c6.3-0.6,12.7-0.9,19-1c14.8-0.1,29.7-0.4,44.5,0.1c7.4,0.2,15,1,21.9,3.1c8.3,2.5,13.3,9.2,15,17.8c3.9,19.9,3.9,40,2.7,60
			c-0.9,14.1-4.8,28-7.1,42.1c-1.4,8.8-3.4,17.7-3.4,26.5c0,19.9,7,37.6,19.8,53.1c5.6,6.8,11.9,12.8,19.6,16.9
			c13.2,6.9,27,6.6,40.4,0.6c29.3-13.2,45.6-36.5,52.1-67.5c4.3-20.8,0.3-40.1-8.4-59.1c-10.5-22.8-27-40.7-45.6-57
			c-5.5-4.8-10.3-10.5-16.1-14.9c-8.8-6.8-17.9-13.5-27.5-18.9c-12.8-7.2-20.9-17.4-25.5-31.2c-4.4-13.1-10.2-25.7-18.9-36.5
			c-8.8-10.9-20.6-16.2-34.5-17c-4.2-0.2-8.3,0-12.5,0"/>
		<path class="st0" d="M1154.4,205.6c-13.8,2-20.9,12.3-28,22.5c-9.2,13.2-19.7,25.2-31.1,36.4c-9.6,9.4-16.7,20.4-22.9,32.1
			c-8,15.2-15.7,30.5-27,43.5c-7.2,8.3-14.7,16.4-21.4,25.1c-6.7,8.5-11.5,18-11.2,29.5c0.3,9.3,3.5,17.2,9.6,24
			c8.7,9.9,19.5,17.3,30,25.1c7.8,5.8,15.8,11.5,22.9,18.1c8.2,7.5,8.7,10.9,2.6,21.4c-6.6,11.5-16.9,19.5-27.1,27.5
			c-14.4,11.3-14.9,22-9.2,37.4c6.2,16.5,18.3,29.4,31.3,41c9.7,8.7,20.1,16.7,30.5,24.5c5.5,4.1,11.6,7.3,18.9,7.1
			c12-0.2,21.6-6.2,25.4-17.6c3-9,5.1-18.2,7.1-27.5c2.2-10.3,4.1-20.6,5.5-31c1.1-7.9,2-16.1,1.4-24c-0.7-10.5-8.6-16.2-17.3-20.5
			c-9.1-4.5-18.5-8.4-27.4-13.1c-6.1-3.2-11.8-7.1-17.5-10.9c-6-4-8.6-9-5.6-16.5c5.7-14.2,10.1-29,16.3-42.9
			c11.1-24.9,23.7-49.1,33.4-74.6c3.9-10.1,8.5-20.4,17.6-26.9c7.7-5.5,16.4-9.5,24.9-13.6c9.5-4.6,18.1-10.1,24.4-18.6
			c8.9-12,8.5-27.3-0.6-40.9c-10.1-15.2-23.7-26.6-40.5-33.9c-4.4-1.9-9.6-1.8-14.4-2.7"/>
		<path class="st0" d="M1343.5,199.6c-4.3,1.5-8.6,3.2-13,4.5c-6.6,2-9.2,7.4-11.5,13.1c-4.6,11.7-6,24.2-8,36.5
			c-4.1,25.4-8.7,50.8-24.7,71.9c-6.7,8.8-14.7,16.6-22.4,24.6c-8.8,9.2-18.9,17.4-25.4,28.6c-8.1,14-8.4,28.8-3.6,44
			c5.2,16.7,14.3,31,25.1,44.5c7.5,9.5,16.2,17.5,26.9,23.7c13.1,7.6,25.9,6.7,39.1,0.9c6.2-2.7,12.6-4.8,19-7.1
			c7.6-2.7,14-0.7,19.5,5c12,12.5,27,18.3,44,20.1c15.1,1.6,30.1,3.4,45,6.1c9.4,1.7,17.8,6.9,26.1,11.8c11.4,6.8,22.9,13.4,36,16.5
			c10.8,2.5,21.5,2.2,32-1.5c12.1-4.3,20.1-16.3,20.6-30c0.5-13.4-2.8-26.3-6.2-39c-4.4-16.1-9.6-32-14.4-48.1
			c-5.8-19.5-19.6-29.3-39-33.1c-17.6-3.4-35.4-1.2-53-1.9c-10.5-0.4-16.2-4.9-17.9-11.5c-0.7-2.7-0.7-5.8,0-8.4
			c4-14.7,8.3-29.4,12.4-44.1c3.7-13.3,8.3-26.5,10.8-40.1c4.3-23.4-3-42.9-22.8-57c-20.4-14.5-43.3-22.9-67.5-27.9
			c-8.6-1.8-17.6-1.5-26.5-2.2"/>
		<path class="st0" d="M437.2,196.6c-5.7,0.8-11.4,1.3-17,2.6c-13.5,3-27,6.5-40.5,9.4c-13.9,3-28.1,5.1-42,8.2
			c-10.1,2.2-20.1,5.1-30,7.9c-15.8,4.4-31.7,8-48,10.1c-7.6,1-15.2,3.1-22.5,5.5c-9.9,3.3-15.4,10.2-15.4,22.9
			c0.2,28.3,16.2,51.3,45.8,58.7c16.1,4,32.2,5.5,48.6,4.6c13.4-0.7,26.7-3.2,40-4.8c17.6-2.1,35.3-2.9,53-1.8
			c8.6,0.5,17.5,2.7,25.4,6c15.8,6.5,24.8,19.2,29.3,35.8c3.5,13.2,3.7,26.3,1.8,39.6c-1.8,12.9-4.7,25.6-5.8,38.5
			c-1.5,17.5,0.8,34.6,9.2,50.6c8.3,15.8,18.5,29.8,32.6,41c13.7,10.9,28.6,12.8,45.1,7.5c27.1-8.7,46.5-26.2,60.6-50.6
			c7-12.1,12.3-24.7,14.4-38.6c2.6-16.1,0.6-31.7-4.9-47.1c-9.4-26.4-25.3-48.5-42.6-70.1c-12.7-15.9-22.8-33.4-32.2-51.4
			c-5.7-11-13.4-20.6-21.9-29.5c-11.4-12-22.9-23.8-34.5-35.5c-10.7-10.9-23.5-17.6-39-18.5c-3-0.2-6-0.6-9-1"/>
		<path class="st0" d="M1598.6,195.6c-2.3,0.5-4.7,1-7,1.5c-13.3,3.1-22.3,11.7-26.3,24.1c-5.3,16.7-9.5,33.8-13,51
			c-2,9.7-0.4,19.7,9.9,24.8c4.7,2.4,10.2,3.5,15.4,4.6c13.1,2.7,22.7,9.8,27.9,22.1c5.3,12.5,10.3,25.3,15,38
			c5.7,15.4,12.1,30.5,23.1,43c4.2,4.7,8.7,9.3,16,9.1c3.2-0.1,5.7-0.9,8-3c8.4-7.6,12.5-17.4,15.6-28c4.7-16.3,5-32.9,4.8-49.6
			c-0.1-7-0.5-14-1-21c-0.9-11.9-1.2-23.8-3.2-35.5c-1.9-11.4-6.9-21.8-13.2-31.6c-7-10.7-14.5-20.9-23.5-30
			c-13.3-13.4-29.3-19.8-48.1-19.5"/>
		<path class="st0" d="M2219.8,170.6c-6.1,2.2-8.6,6.7-8.5,13c0.1,6.2-0.1,12.3,0,18.5c0.4,22.8,8.5,42.7,23,60
			c3.6,4.3,7.4,8.7,11.5,12.5c20.7,19,36.2,41.7,48,67.1c4.2,9,9.5,17.3,16.4,24.6c7.6,8,19.5,7.9,27.6,0.5
			c11.4-10.2,17.3-23.4,21.4-37.6c3-10.4,4.4-21.3,3.8-32c-0.6-12.6-2.7-25-4.4-37.5c-0.8-6.1-2.7-12-3.3-18
			c-1-9.8-9.7-17.4-20.1-17.9c-20.6-1.1-37.4-10.1-53.1-22.6c-9.4-7.5-19.1-14.6-29-21.5c-9.8-6.9-20.9-10.1-33-9.1"/>
		<path class="st0" d="M1577.6,168.6c-8.8,2.2-17.7,4.1-26.5,6.6c-8.9,2.5-16.4,7.3-23.1,13.8c-5.7,5.6-7.6,12.3-7.8,19.6
			c-0.2,7.8,0.9,15.7,0.8,23.5c-0.2,7.5-1.2,15-1.9,22.5c-0.6,6.3-1.4,12.7-2,19c-0.5,5.3-0.8,10.7-1,16c-1,22.7,10.9,32.9,28,39
			c9.1,3.3,18.3,6.4,27.5,9.5c11.7,4,19.2,12.5,25,23c7.2,13,11.3,27,15.4,41.1c2.6,9,4.6,18.3,6.5,27.5c0.9,4.1,1.4,8.3,1.5,12.5
			c0.5,14.8,0.1,29.7,1.2,44.5c1.2,15.9,3.4,31.9,10.4,46.5c7.2,15,18.6,22.3,37.5,18.6c16.4-3.2,28.2-12,34.8-27.2
			c2.4-5.5,3.5-11.9,4-17.9c1.6-18.1-2.2-35.6-6.4-53c-2.9-12.2-4.4-24.6-3.4-37c0.8-9.7,2.7-19.3,3.8-29c0.9-7.3,1.4-14.7,2-22
			c1-10.5,1.9-21,3-31.5c1.3-12.3,2.4-24.7,4.1-37c1.4-10.6,2-21.2-1.2-31.5c-2.1-6.6-4.8-13.1-8.5-19c-12.5-20-26.8-38.7-44.4-54.6
			c-10.1-9.1-22.2-14.4-35-18.6c-14.4-4.7-29.1-5.3-44-5"/>
		<path class="st0" d="M1130.4,153.6c-11.2,3.3-16,12.9-21,22c-6.9,12.8-14,25.3-25.1,34.9c-5.9,5.1-12.4,9.6-18.4,14.6
			c-9,7.3-17.6,15.1-23,25.5c-4.4,8.4-6,17.7-7,27c-1.8,17.3-6.2,33.7-16.6,48c-7.8,10.7-16.5,20.7-23.8,31.7
			c-7.3,10.9-11.1,23.2-12.8,36.4c-2.2,17.4,0.5,34,5.1,50.6c3.2,11.5,2.2,22.7-1.3,34.1c-2,6.6-2.9,13.6-3.6,20.5
			c-1.3,13.6,3,25.9,10.5,37c14,20.7,30.2,39.5,48.8,56.2c10.6,9.5,20.9,19.5,29.2,31.3c12,17,14.6,36.1,13.4,56.1c-0.2,3-0.7,6-1,9
			c-0.3,3.6,1.2,6.9,4.5,7.8c2.5,0.7,6.2,0.5,8.3-1c6.3-4.4,11.9-9.7,18.2-14.3c11-8,22.3-15.8,33.5-23.6c8.7-6,16.6-12.9,21.5-22.6
			c4.5-8.9,6.2-18.6,7.1-28.5c2.1-22.5,4.1-45,13.3-66.1c3.3-7.5,5.8-15.5,7.5-23.5c4-18.8-0.8-30.7-15.9-41.4
			c-5.8-4.1-12.3-7.3-18.4-11.1c-18.4-11.3-24.3-24.1-18.8-45.5c2.6-10.1,6.7-19.9,10.9-29.5c4.8-11.1,10.1-22,16-32.5
			c7-12.6,18.4-21.2,29.9-29.6c8.2-6,17-11.3,24.3-18.2c10.1-9.5,16.9-21.2,19.3-35.3c3.7-21.9-5.3-38.9-19.6-54
			c-15.5-16.3-33.9-29.4-52-42.6c-8.7-6.3-17.2-12.8-26.1-18.9c-4.8-3.4-10.4-5.1-16.5-4.6"/>
		<path class="st0" d="M899.3,142.6c-4.7,3-10,5.3-13.9,9.1c-10.1,10-18.6,21.4-23.6,34.9c-3.4,9.3-4.9,18.9-1.5,28.5
			c5,13.7,18.2,22.3,32.9,17.3c7.4-2.5,12.8-8.7,14.9-16.3c2.8-10,4.7-20.3,6.6-30.5c1.1-6.3,2.2-12.7,1.9-19
			c-0.3-6.1-1.8-12.3-4-18c-2.1-5.4-7.2-6.8-12.8-6.1"/>
		<path class="st0" d="M704.8,123.1c-9.2,2.7-11.1,8.4-8.5,19c3.5,13.7,10.8,24.4,24.5,29.4c8.4,3.1,16.8,1.6,20.2-7.5
			c1.4-3.7,0.7-9.1-0.9-12.8c-5.9-13.2-15.7-22.6-29.8-27.1c-1.6-0.5-3.3-0.7-5-1"/>
		<path class="st0" d="M1731.7,108.6c-4.3,1.5-8.9,2.6-13,4.6c-11.2,5.4-14.8,14.4-10.5,25.9c5.3,14.2,14.6,24.8,29.5,28.9
			c12.5,3.4,23.6-2.4,25.5-17.9c1.3-10.7-1.3-20.5-6.7-29.4c-5.4-8.9-14.3-12-24.4-12.1"/>
		<path class="st0" d="M1962.7,107.6c-7,2-14.3,3.3-20.9,6.2c-11.5,4.9-21.7,12.1-28.5,22.9c-6.7,10.7-4.4,21.7,1.5,31.9
			c5.2,9,12.4,16.2,22.9,19c9.4,2.5,19,1.6,28-1.6c13.9-5,26.8-12.2,38.1-21.9c7.3-6.2,13.3-13.1,12.5-23.5
			c-0.7-9.5-6.6-15.8-13.5-21.6c-11.5-9.7-25.1-12-39.5-11.5"/>
		<path class="st0" d="M903.3,105.6c-15.4,2.2-26.5,11.1-34.9,23.6c-5,7.4-9.8,15.1-14,23c-5.2,10-10.4,20.1-14.5,30.5
			c-6.3,16.3-8.6,33.2-4.1,50.5c2.6,10,9.7,17,17.5,22.9c13.2,10,28.3,14.8,44.9,15.9c6.9,0.4,13.4,0.3,20-1.3
			c14.1-3.4,21.1-12.1,21.5-26.5c0-1.2,0-2.3,0-3.5c0.3-31,0.8-62,0.9-93.1c0-9.1-2.3-18-7-26c-6.7-11.4-16.6-17-30-16"/>
		<path class="st0" d="M886.3,83.6c-6.5,1.3-13.1,2.3-19.5,4.1c-5.8,1.7-11.8,3.5-16.9,6.6c-6.2,3.8-8.7,10.4-9.7,17.8
			c-3.5,24-11.9,46.6-19.2,69.6c-5,15.8-8.7,32.2-12,48.5c-1.4,6.7-0.8,14,0,20.9c0.4,3.5,2.5,7.2,4.9,10
			c10.3,12.4,24.3,19.2,38.9,25.2c24.5,10,50.6,14.2,76,20.6c7.7,1.9,15.5,4.8,22.5,8.5c13.9,7.5,17.3,21,15.1,35.9
			c-1.7,11.4-3.6,22.7-5.5,34c-1.7,10.2-3.4,20.3-5,30.5c-1.7,11.2-3.3,22.4-5,33.5c-1.3,8.2-3.4,16.3-3.8,24.5
			c-0.7,12.1-0.6,24.4,0,36.5c0.3,6.4,2.1,12.7,3.4,19c2.2,10.7,9.2,18.5,16,26.5c18.1,21.5,40.5,38,63,54.6
			c10.8,8,19.3,18.3,23.6,31.4c3.6,11,2,22.1-0.5,33c-3.2,13.9-6.8,27.7-7.5,42c-0.4,8-1.1,16-2,24c-1.3,12-5.8,22.1-17.5,27.5
			c-9.5,4.4-19.2,8.3-28.5,13.1c-13.6,7-24.3,16.7-28.1,32.4c-2.4,9.8-2.4,19.7-1.3,29.5c1.3,11.9,5.2,23,10.9,33.5
			c6.3,11.6,14.4,21.9,27.1,26.3c14.7,5.1,24.1,1.2,32-12.7c7.9-13.9,12.2-29,16.2-44.1c3.9-14.4,6.3-29.3,9.1-44
			c1.4-7.1,2-14.4,3.6-21.5c1.8-7.6,6.8-13.4,12.4-18.5c5.1-4.6,10.3-9,15.5-13.5c13.3-11.7,23-26.4,34-40.1
			c9.1-11.3,20.1-20.4,32-28.5c8-5.4,15.8-11,22.1-18.4c6.6-7.8,10.2-16.8,11.3-26.6c1.5-13.8,1.7-27.7,3.2-41.5
			c1.5-14,4.1-27.7,10.3-40.6c5.3-10.9,10.1-21.9,15-33c5.4-12.2,4.6-24.5-0.5-36.5c-5.6-13.1-14-24.5-23.4-35.1
			c-8-9-15.7-18.2-18-30.5c-1.5-7.9-0.5-15.8,1.5-23.5c4.4-17.1,11.7-32.6,25.1-44.5c8.6-7.6,17.9-14.4,26.9-21.6
			c18-14.3,29.3-32.8,33-55.6c3.8-23.7-2.1-44.6-20.1-60.9c-12.1-11.1-25.4-21-37.9-31.7c-12.5-10.7-24.9-21.5-37-32.5
			c-8-7.3-15.1-15.6-23.2-22.8c-7.2-6.5-15.6-10.5-25.9-9.7c-6,0.4-11,2.4-15.5,6.1c-6.8,5.7-11.2,13.1-15.1,21
			c-4.3,8.8-8.6,17.6-13.5,26c-7.3,12.7-18.4,21.3-31.4,27.6c-13.2,6.4-26.3,13.2-39.6,19.4c-9.1,4.2-18.4,6.3-27.5-0.4
			c-2.1-1.6-4.6-3-5.9-5c-5.8-8.9-9.1-18.9-10.6-29.5c-2.8-19.2-5.2-38.5-9.2-57.5c-4.5-21.5-18-35.3-40.3-38.4
			c-9-1.3-18.3-0.8-27.5-1.2"/>
		<path class="st0" d="M2290.9,76.6c-4.5,1-9.1,1.7-13.5,3.1c-11.3,3.6-21.6,8.6-28.1,19.4c-7.7,12.8-8.6,25.7,0.2,38
			c13.1,18.3,30.3,32,51,41c9.4,4.1,18.6,1.4,26.4-4.5c12.2-9.2,19.9-21.9,25.6-35.9c2.8-6.8,4.8-13.6,5-21c0.4-17-9.3-30.3-25.5-36
			c-7.4-2.6-15.1-4-23-4c-5.8,0-11.7,0-17.5,0"/>
		<path class="st0" d="M1407.5,46.5c-7.5,2.2-10.1,7.4-10.6,15c-1.2,16.8-2.9,33.4-5.5,50.1c-2.5,16.3-0.5,32.3,13,45.1
			c13.3,12.7,27.9,23.2,43.6,32.4c14.7,8.6,29.2,17.5,38.1,32.9c5.4,9.3,8.7,19.2,10.2,30c1.5,11.2-0.3,22-1.1,33.1
			c-0.6,9.5-1.3,19.2,0.2,28.5c2,12.9,10.3,22.2,22.3,27.5c10.3,4.5,21,7.9,31.4,12.2c6.5,2.6,13.1,5.4,19,9.1
			c10.1,6.3,15.6,16.6,18.9,27.5c3.4,11.4,5.3,23.2,7.1,35c1.8,11.4,2.7,23,4.1,34.5c1.9,15.5,4.2,31,5.9,46.5
			c1.3,12.1,2.4,24.3,3,36.5c0.4,8.8-2.2,17.2-6.4,25c-2.5,4.7-7.3,6.7-12,7.9c-6.9,1.7-13.9,3.2-21,3.5c-14,0.5-28,0.7-42,0
			c-18.1-0.8-35.8-4.2-52.6-11.8c-11.5-5.3-23.4-10.5-36-11.9c-26.9-2.9-52.3,5.2-65.1,35.8c-5.1,12.2-6.7,24.7-5.8,37.6
			c1.2,16,6,31.3,12.5,46c3.4,7.8,7.5,15.3,12,22.5c9.9,15.9,23.9,27.4,40.4,36.1c11.9,6.2,23.8,12.2,36.5,16.5
			c18.5,6.3,35,4.1,50.6-8c19.5-15.1,37.9-31.4,54.9-49.2c9.2-9.6,15-21.5,20.5-33.5c5.5-11.8,10.9-23.6,16-35.5
			c6.4-14.8,16.2-25.4,32-30.7c17.7-5.8,35.1-12.5,51.6-21.4c13.6-7.3,26-16.2,32.8-30.6c2.7-5.7,4.4-12.2,5-18.5
			c1.1-10.9-0.2-21.8-2.3-32.5c-3.8-18.9-8.8-37.6-11.1-56.6c-1.8-14.8-0.7-30-0.2-45c0.3-10,1.4-20.1,3-30
			c2.8-17.9,6.4-35.5,14.2-52.1c3.8-8.1,6.9-16.8,8.4-25.5c2-11.4-3-21.4-10.3-29.9c-7.9-9.4-16.3-18.3-24.4-27.6
			c-8.9-10.1-17.6-20.4-26.5-30.5c-17.9-20.3-39.1-35.3-66-40.9c-13.9-2.9-28-4.8-42-7.1c-7.7-1.2-15.3-2.3-23-3.5
			c-16.1-2.6-26.3-11.7-30.5-27.5c-1.1-4.1-2.6-8-4-12c-8.4-25.2-28.3-36.6-52-42.9c-15-4-30.3-7.2-45.5-10.6c-3.4-0.8-7-1-10.5-1.5
			"/>
		<path class="st0" d="M33,39.5c-9.4,3.3-13.2,7.4-12.4,15c1.6,15.5,5.5,30.8,16.2,42.3c10.7,11.5,24.4,15.3,39.3,7.2
			c7.6-4.2,10.6-12.6,8-23c-3.8-15.2-12.9-26.3-27-32.9c-7.5-3.5-15.6-5.8-23.5-8.6"/>
		<path class="st0" d="M644.2,21.5c-11.7,2.9-20.8,10.4-30,17.5c-10.7,8.2-20.2,17.6-25.9,30.1c-1.7,3.6-3.1,7.6-3.5,11.5
			c-1.3,13.2,4.2,17.7,15.4,21.9c4.9,1.9,10,3.2,15,4.5c16.3,4.4,27.9,14.9,37,28.6c8.9,13.3,16.9,27.3,26.7,39.9
			c13.6,17.3,31.5,28.1,53.8,31.3c12.4,1.8,23-1.6,32.4-8.8c8.9-6.9,12.5-17.2,14.6-27.9c2.7-14.5-2.8-26.7-11.5-37.5
			c-12.9-15.9-28.6-29.2-44.4-42.1C711,80.1,698,70,685.9,58.9c-7.8-7.3-14.3-16.1-21.1-24.4c-5.4-6.4-11.3-11.9-20-13"/>
		<path class="st0" d="M1503.6,619.9c-4.5,0.7-9,1.5-13.5,2c-13.5,1.3-27,1.6-40.5-0.8c-4.3-0.8-9.2-0.7-13.4,0.5
			c-7,2-10.4,7.9-11,14.8c-1.3,17,2.6,32.9,13,46.4c7.6,9.9,16.5,19,29.4,21.5c10.9,2,21.9,1.4,32-4.4c15.2-8.8,28.7-19.5,39.1-34
			c6.1-8.6,8.7-18.3,7.3-28.5c-1.4-9.6-10.7-16.6-23.3-17.5c-6.1-0.4-12.3-0.1-18.5-0.1"/>
		<path class="st0" d="M1765.7,610.9c-5.8,1-11.7,2-17.5,3c-21.5,3.5-39.8,13.7-56.5,27c-19.5,15.6-35.2,34.6-50.1,54.5
			c-12.6,16.8-26.4,32.4-42.3,46.2c-9.5,8.3-17.8,17.8-22.7,29.9c-4.1,10.3-3.3,20,3.1,29c3.8,5.3,7.4,10.9,12,15.5
			c19.7,19.5,31,43.1,35.4,70.1c2.3,14.3,4,28.7,6.1,43c3.1,21,6.3,41.9,14.9,61.6c5.5,12.6,13.2,23.8,21.7,34.4
			c5.5,6.8,11.3,13.5,18,18.9c9.2,7.5,20.5,10.3,32.4,11.3c29.2,2.3,54.9-8.3,80-21.1c11.5-5.8,22.7-12.2,30.5-23
			c6.9-9.6,10.6-20.4,10.3-32c-0.3-11.5-3.9-22.5-8.7-33.1c-4.9-11-10.1-22-13.3-33.6c-3.1-11.1-2.4-22.9-0.9-34.5
			c1.5-11.6,3.3-23.4,2.8-35c-0.5-10.4-3.9-20.7-6.2-31c-2.3-10.4-4.5-20.7-4.6-31.5c0-16.2-0.3-32.4-1-48.5
			c-0.4-9.7-1.9-19.3-2.9-29c-0.7-7.5-1.2-15-2-22.5c-2.2-18.9-3.7-37.9-11.9-55.6c-3.7-8-10.5-10.9-18.1-12.9
			c-2.6-0.7-5.3-0.7-8-1.1"/>
		<path class="st0" d="M1895.7,587.9c-5.3,1-10.8,1.7-16,3.1c-24.4,6.4-38.8,22.4-43.5,47c-2.6,13.8-1.9,27.6-0.1,41.5
			c1.7,12.8,2.7,25.7,4.1,38.5c1.7,15.8,2.6,31.8,5.2,47.5c2.5,15.4,8.9,29.6,16.8,43.1c9.2,15.6,17.6,31.6,23.9,48.6
			c5.6,15.1,6.5,30.6,2.7,46.5c-3.1,12.8-4.6,25.8-4.7,39c-0.2,13.3-0.9,26.7-2,40c-1.3,16.4-5.7,31.9-15.4,45.6
			c-8,11.3-18.5,19.8-30.2,26.3c-27.7,15.3-56.5,28.4-86.4,38.7c-13.4,4.6-27.1,8.3-40.5,13.2c-15.2,5.6-27.6,14.8-34,30.4
			c-4.5,10.9-7,22.1-4.5,34c1,4.8,1.3,10,3.1,14.4c5.7,13.5,17,20.8,30.4,25c27.6,8.7,55.2,17.5,83.1,25.4
			c13.9,3.9,28.3,5.6,42.4,8.8c10.6,2.4,20.8,6.3,28,15c8.9,10.7,11.5,23.1,9.2,37c-2.6,15.1-8.9,28-20.1,38.5
			c-7.4,6.9-15,13.7-22.5,20.5c-9.1,8.2-12.6,18.5-12.6,30.5c0,8,0.3,15.9,3.1,23.5c4.5,12.4,12.5,19.5,28,16.2
			c10.3-2.2,21-2.8,31.5-4.2c10-1.3,20-2.7,30-4c8.3-1.1,16.7-2.2,25-3c6.8-0.6,10-5.2,12.5-10.6c4.3-9.5,7.7-19.4,12.7-28.4
			c7.6-13.7,19.8-23.1,33.4-30.6c8.9-4.9,16.3-11.6,22.9-19.1c5.5-6.2,6.7-14.1,8.1-22c3.6-21.3-4.9-40.2-11.5-59.6
			c-5.1-15.1-10.7-30.2-14.9-45.6c-5.6-20.8-14-40.3-23.6-59.6c-8-16.1-12.7-33.2-13.3-51.5c-0.6-19.2,3.9-36.9,11.7-54
			c6.6-14.4,14.6-28,24.9-40.1c7.5-8.8,17.1-14.8,26.5-21.1c5.5-3.7,10.9-7.7,16-12c6.5-5.5,8.2-13.1,9.3-21.4
			c1.3-10.2,0-20.4,2.5-30.6c3.1-12.6,9.3-23.2,17.3-32.9c15.5-18.9,35.3-32.6,56-45c8-4.8,15.5-10.4,21.4-17.6
			c8.3-10.3,6.5-22,3-33.4c-8.4-27.1-26.7-44.3-53.4-53.1c-16.2-5.4-32.5-10.7-48.5-16.6c-10.8-4-20.2-10.5-29.1-17.9
			c-11.4-9.5-19.7-21.5-28.1-33.5c-9.4-13.5-18.9-27-29-40c-12.1-15.5-28-25.6-47.4-29.5c-4.2-0.9-8.7-0.7-13-1.1"/>
		<path class="st0" d="M1898.7,603.9c-3.3,0.7-6.7,1.3-10,2c-21.3,4.3-35.2,21.8-37.6,42c-1.6,13.4-1.2,26.7,1,40.1
			c1.2,7.4,1.3,15,2.1,22.5c2.4,20.4,2.2,41.2,8.9,61.1c5.3,15.6,14.2,29.2,23.6,42.5c14.4,20.2,29.5,40.1,39.4,63.1
			c2.8,6.6,5.6,13.5,6.9,20.5c1.4,7.5-1.7,14.5-5.8,21c-4.7,7.5-9.7,14.8-13.9,22.6c-4.4,8-5.7,17-7.2,26c-2.4,14.3-2.5,29-6.9,43.1
			c-4.9,15.7-14.7,27.8-27.1,38c-17.7,14.4-37.6,24.7-58.5,33.7c-11.9,5.1-23.3,11.5-35.1,16.8c-11.5,5.2-23.3,9.7-35,14.6
			c-13.3,5.6-26,12-36.1,22.9c-10.8,11.5-11.6,33.6,0.5,44.8c11.8,11.1,25,19.6,39.7,25.7c12.4,5.2,25.1,10.2,38,13.9
			c9.5,2.7,19.6,3.3,29.4,4.7c15.2,2.2,30.7,2.3,45.5,6.9c18.4,5.8,30,15.1,33.6,38.1c1.9,11.8-0.2,23.1-1.8,34.5
			c-2.1,14.9-5.1,29.7-7.3,44.6c-1,6.7,5.3,13.8,14.5,11.6c9.8-2.3,18.2-7.2,25.9-13.2c15.6-12.2,31.7-23.7,45.6-38
			c9.1-9.4,14.1-20.6,12.8-33.5c-1-10-2.9-20.2-6.5-29.5c-8.6-22.3-18.8-44-27.6-66.2c-4.7-11.9-7.2-24.6-8.7-37.5
			c-1.3-11.3-3.2-22.7-3.9-34c-0.9-16.5-1.7-33.1-0.9-49.5c1.1-21.2,9.5-40.5,19.3-59c11.1-21,20.3-43,34.1-62.5
			c7.7-10.9,15.8-21.4,24.5-31.5c11.3-13,22.7-26,35.1-38c13.7-13.2,28.6-25.1,42.8-37.7c8.2-7.3,16.4-14.6,24-22.6
			c14.2-15.1,7.9-34.9-2.4-47.5c-11.2-13.7-26.8-19.6-42.6-25.5c-20.5-7.6-40.9-15.6-58.5-29c-12.9-9.8-22.7-22.5-32-35.5
			c-8.3-11.6-15.7-23.8-24.7-34.9c-10.4-12.8-22-24.8-38.9-29.1c-5.9-1.5-12-2.1-18-3.1"/>
		<path class="st0" d="M1903.7,640.9c-13.5,3.7-18.9,14.1-20.3,26.5c-1.3,11.2-1.6,22.7-1,34c0.9,16.4,1.3,33,5.8,49
			c4,14.3,11.3,26.9,21.1,38c16.3,18.4,32.7,36.7,49.6,54.4c4.8,5,11.2,8.7,17.4,12.1c12.7,7,25.5,4.4,37.9-1
			c19.7-8.5,35.4-22.4,48.3-39.1c5.3-6.8,9.6-14.7,8.9-24.4c-0.4-6.5-2.2-11.8-6.7-16.5c-8.3-8.8-18.2-15.4-28.5-21.5
			c-18.8-11.1-37.3-22.6-51.9-39.1c-8.6-9.8-16.3-20.4-24.1-31c-7.2-9.8-14.2-19.6-23-28c-9.3-9-19.8-14.5-33.1-13.4"/>
	</g>
</g>
</svg>
